<?xml version="1.0" encoding="utf-8"?>
<!-- Generator: Adobe Illustrator 19.1.0, SVG Export Plug-In . SVG Version: 6.00 Build 0)  -->
<svg version="1.1" id="Слой_1" xmlns="http://www.w3.org/2000/svg" xmlns:xlink="http://www.w3.org/1999/xlink" x="0px" y="0px"
	 viewBox="0 0 54.4 51.4" style="enable-background:new 0 0 54.4 51.4;" xml:space="preserve">
<style type="text/css">
	.st0{fill:#ED1B34;}
	.st1{fill-rule:evenodd;clip-rule:evenodd;fill:#ED1B34;}
</style>
<g>
	<path class="st0" d="M47.2,40.2c0,0.3-0.1,0.5-0.4,0.6c-0.1,0.1-12.6,5.8-17.6,8.1c-0.4,0.2-0.7,0.3-1,0.3V29.2h-2v20
		c-0.3-0.1-0.7-0.2-1-0.3c-4.6-2.1-17.6-8.1-17.6-8.1c-0.2-0.1-0.4-0.3-0.4-0.6V24.3h-2v15.9c0,1,0.6,2,1.5,2.4c0,0,13,6,17.6,8.1
		c1.2,0.5,2.3,0.6,2.9,0.6c0,0,0.1,0,0.1,0c0.7,0,1.7-0.1,2.7-0.6c5-2.3,17.5-8.1,17.6-8.1c0.9-0.4,1.5-1.4,1.5-2.4V24.3h-2V40.2
		L47.2,40.2z M53.4,15.8l-3-1.5l3-1.5c0.6-0.3,0.9-0.9,0.9-1.5c0-0.6-0.4-1.2-0.9-1.5L34.4,0.3c-0.8-0.4-1.6-0.4-2.4,0l-4.8,2.4
		l-4.8-2.4c-0.8-0.4-1.6-0.4-2.4,0L0.9,9.8C0.4,10.1,0,10.7,0,11.3c0,0.6,0.4,1.2,0.9,1.5l3,1.5l-3,1.5C0.4,16.1,0,16.7,0,17.3
		c0,0.6,0.4,1.2,0.9,1.5L20,28.3c0.8,0.4,1.6,0.4,2.4,0l4.8-2.4l4.8,2.4c0.4,0.2,0.8,0.3,1.2,0.3c0.4,0,0.8-0.1,1.2-0.3l19.1-9.5
		c0.6-0.3,0.9-0.9,0.9-1.5C54.4,16.7,54,16.1,53.4,15.8L53.4,15.8z M33.5,26.5c-0.2,0.1-0.4,0.1-0.6,0l-5.7-2.9l-5.7,2.8
		c-0.2,0.1-0.4,0.1-0.6,0L2.4,17.3l6-3l-6-3l18.5-9.2c0.2-0.1,0.4-0.1,0.6,0l5.7,2.9l5.7-2.9c0.2-0.1,0.4-0.1,0.6,0l18.5,9.2l-6,3
		l6,3L33.5,26.5L33.5,26.5z M26,7.5l-14,7l0.9,1.8l14.1-7c0.2-0.1,0.4-0.1,0.5,0l14,7l0.9-1.8l-14-7C27.6,7.1,26.8,7.1,26,7.5
		L26,7.5z"/>
</g>
</svg>
