<?xml version="1.0" encoding="utf-8"?>
<!-- Generator: Adobe Illustrator 19.1.0, SVG Export Plug-In . SVG Version: 6.00 Build 0)  -->
<svg version="1.1" id="Слой_1" xmlns="http://www.w3.org/2000/svg" xmlns:xlink="http://www.w3.org/1999/xlink" x="0px" y="0px"
	 viewBox="0 0 53 56" style="enable-background:new 0 0 53 56;" xml:space="preserve">
<style type="text/css">
	.st0{fill:#ED1B34;}
	.st1{fill-rule:evenodd;clip-rule:evenodd;fill:#ED1B34;}
</style>
<g>
	<path class="st0" d="M48.9,4.3l-2.1-0.8l-3.1,7.8l2.1,0.8L48.9,4.3L48.9,4.3z M27.8,0h-2.3v8.4h2.3V0L27.8,0z M38.6,1.2l-2.2-0.4
		L34.8,9l2.2,0.4L38.6,1.2L38.6,1.2z M41.4,13.7H11.8L0.1,28.1L26.6,56l26.5-27.9L41.4,13.7L41.4,13.7z M41.8,17.7l7.6,9.4H34.7
		L41.8,17.7L41.8,17.7z M40.3,16L34,24.4L27.7,16H40.3L40.3,16z M33.2,27.2H20l6.6-8.8L33.2,27.2L33.2,27.2z M25.6,16l-6.3,8.5
		L12.9,16H25.6L25.6,16z M3.4,28.3L3.1,28l0.3-0.3V28.3L3.4,28.3z M11.4,17.7l7,9.4H3.8L11.4,17.7L11.4,17.7z M4.5,29.4h14l5.9,20.9
		L4.5,29.4L4.5,29.4z M26.6,50.1l-5.8-20.7h11.6L26.6,50.1L26.6,50.1z M28.9,50.3l5.9-20.9h14L28.9,50.3L28.9,50.3z M18.7,9
		l-1.6-8.3l-2.2,0.4l1.6,8.3L18.7,9L18.7,9z M9.8,11.3L6.7,3.5L4.6,4.3l3.1,7.8L9.8,11.3L9.8,11.3z"/>
</g>
</svg>
