<?xml version="1.0" encoding="utf-8"?>
<!-- Generator: Adobe Illustrator 19.1.0, SVG Export Plug-In . SVG Version: 6.00 Build 0)  -->
<svg version="1.1" id="Слой_1" xmlns="http://www.w3.org/2000/svg" xmlns:xlink="http://www.w3.org/1999/xlink" x="0px" y="0px"
	 viewBox="0 0 60 44" style="enable-background:new 0 0 60 44;" xml:space="preserve">
<style type="text/css">
	.st0{fill:#ED1B34;}
	.st1{fill-rule:evenodd;clip-rule:evenodd;fill:#ED1B34;}
</style>
<g>
	<path class="st0" d="M58.8,23.2l-5.5-3.1c1.3-1.2,2.2-3.1,2.2-5.2c0-3.7-2.7-6.8-6.1-6.8c-3.4,0-6.1,3-6.1,6.8c0,2.1,0.9,4,2.3,5.3
		l-3.7,2l1,1.9l4.9-2.6c0.5,0.2,1.1,0.2,1.6,0.2c0.6,0,1.2-0.1,1.8-0.3l6.6,3.7c0.1,0.1,0.2,0.2,0.2,0.3V27c0,0.2-0.2,0.3-0.3,0.3
		h-8.2v2.1h8.2c1.4,0,2.5-1.1,2.5-2.5v-1.7C60.1,24.4,59.6,23.6,58.8,23.2L58.8,23.2z M49.4,19.5c-2.2,0-4-2.1-4-4.6
		c0-2.5,1.8-4.6,4-4.6c2.2,0,4,2.1,4,4.6C53.4,17.4,51.6,19.5,49.4,19.5L49.4,19.5z M10.8,27.4H2.6c-0.2,0-0.3-0.2-0.3-0.3v-1.7
		c0-0.1,0.1-0.2,0.2-0.3l6.9-3.6c0.5,0.1,1,0.2,1.5,0.2c0.5,0,1.1-0.1,1.6-0.2l4.9,2.6l1-1.9l-3.7-2c1.4-1.2,2.3-3.1,2.3-5.3
		c0-3.7-2.7-6.8-6.1-6.8c-3.4,0-6.1,3-6.1,6.8C4.7,17,5.6,19,7,20.2l-5.6,2.9c-0.8,0.4-1.3,1.3-1.3,2.2V27c0,1.4,1.1,2.5,2.5,2.5
		h8.2V27.4L10.8,27.4z M6.8,14.9c0-2.5,1.8-4.6,4-4.6c2.2,0,4,2.1,4,4.6c0,2.5-1.8,4.6-4,4.6c-0.5,0-1-0.1-1.5-0.3l0-0.1l-0.1,0
		C7.8,18.4,6.8,16.7,6.8,14.9L6.8,14.9z M49.7,32.4L36,24.9c3.6-2.3,6-6.6,6-11.6C42.1,6,36.7,0,30.1,0c-6.6,0-11.9,6-11.9,13.3
		c0,5,2.5,9.3,6.1,11.6l-13.7,7.4c-1.5,0.8-2.4,2.3-2.4,4.1v3c0,2.5,2.1,4.6,4.6,4.6h34.7c2.5,0,4.6-2.1,4.6-4.6v-3
		C52.1,34.7,51.2,33.2,49.7,32.4L49.7,32.4z M20.4,13.4c0-6.2,4.4-11.2,9.8-11.2c5.4,0,9.8,5,9.8,11.2c0,6.2-4.4,11.2-9.8,11.2
		C24.7,24.6,20.4,19.5,20.4,13.4L20.4,13.4z M50,39.4c0,1.4-1.1,2.5-2.5,2.5H12.8c-1.4,0-2.5-1.1-2.5-2.5v-3c0-0.9,0.5-1.7,1.3-2.2
		l15.1-8.1c1.1,0.4,2.3,0.6,3.5,0.6c1.2,0,2.4-0.2,3.5-0.6l15,8.2c0.8,0.4,1.3,1.2,1.3,2.2V39.4L50,39.4z"/>
</g>
</svg>
