<?xml version="1.0" encoding="utf-8"?>
<!-- Generator: Adobe Illustrator 19.1.0, SVG Export Plug-In . SVG Version: 6.00 Build 0)  -->
<svg version="1.1" id="Слой_1" xmlns="http://www.w3.org/2000/svg" xmlns:xlink="http://www.w3.org/1999/xlink" x="0px" y="0px"
	 viewBox="0 0 50 47" style="enable-background:new 0 0 50 47;" xml:space="preserve">
<style type="text/css">
	.st0{fill:#ED1B34;}
	.st1{fill-rule:evenodd;clip-rule:evenodd;fill:#ED1B34;}
</style>
<g>
	<path class="st0" d="M46.8,0H3.4C1.6,0,0.1,1.5,0.1,3.3v40.4c0,1.8,1.5,3.3,3.3,3.3h43.4c1.8,0,3.3-1.5,3.3-3.3V3.3
		C50.1,1.5,48.6,0,46.8,0L46.8,0z M48.1,43.7c0,0.7-0.6,1.3-1.3,1.3H3.4c-0.7,0-1.3-0.6-1.3-1.3V30.5h14.2c0.2,0,0.3,0.1,0.3,0.3
		v6.4c0,1.3,1,2.3,2.3,2.3h12.4c1.3,0,2.3-1,2.3-2.3v-6.4c0-0.2,0.1-0.3,0.3-0.3h14.2V43.7L48.1,43.7z M48.1,28.5H33.9
		c-1.3,0-2.3,1-2.3,2.3v6.4c0,0.2-0.1,0.3-0.3,0.3H18.9c-0.2,0-0.3-0.1-0.3-0.3v-6.4c0-1.3-1-2.3-2.3-2.3H2.1V3.3
		C2.1,2.6,2.7,2,3.4,2h43.4c0.7,0,1.3,0.6,1.3,1.3V28.5L48.1,28.5z M22.1,20.6l-6.8-6.8l-1.4,1.4l8.2,8.2L36.3,9.3l-1.4-1.4
		L22.1,20.6L22.1,20.6z"/>
</g>
</svg>
