<?xml version="1.0" encoding="utf-8"?>
<!-- Generator: Adobe Illustrator 19.1.0, SVG Export Plug-In . SVG Version: 6.00 Build 0)  -->
<svg version="1.1" id="Слой_1" xmlns="http://www.w3.org/2000/svg" xmlns:xlink="http://www.w3.org/1999/xlink" x="0px" y="0px"
	 viewBox="0 0 50 49" style="enable-background:new 0 0 50 49;" xml:space="preserve">
<style type="text/css">
	.st0{fill:#ED1B34;}
	.st1{fill-rule:evenodd;clip-rule:evenodd;fill:#ED1B34;}
</style>
<g>
	<path class="st0" d="M47.6,0H2.4C1.1,0,0,1.1,0,2.4v6.5c0,0,0,0.1,0,0.1l0,37.7C0,47.9,1.1,49,2.4,49h6.4c1.3,0,2.4-1.1,2.4-2.4
		V11.2l36.5,0c1.3,0,2.4-1.1,2.4-2.4V2.4C50,1.1,48.9,0,47.6,0L47.6,0z M9.4,14.8H3.6v1.8h5.8v3.6H6.3v1.8h3.1v3.6H6.3v1.8h3.1v3.6
		H3.6v1.8h5.8v3.6H6.3v1.8h3.1v3.6H6.3v1.8h3.1v3.2c0,0.3-0.3,0.6-0.6,0.6H2.4c-0.3,0-0.6-0.3-0.6-0.6V11.1c0.2,0,0.4,0.1,0.6,0.1
		l7,0V14.8L9.4,14.8z M48.2,8.8c0,0.3-0.3,0.6-0.6,0.6l-3,0V6.3h-1.8v3.1l-3.6,0V3.6h-1.8v5.8l-3.6,0V6.2h-1.8v3.2l-3.6,0V6.2h-1.8
		v3.2l-3.6,0V3.6h-1.8v5.8l-3.6,0V6.3h-1.8v3.1l-3.6,0V6.3h-1.8v3.1l-3.6,0l0-5.8l-1.8,0l0,5.8h-3C2,9.4,1.8,9.1,1.8,8.8V2.4
		c0-0.3,0.3-0.6,0.6-0.6h45.3c0.3,0,0.6,0.3,0.6,0.6V8.8L48.2,8.8z M46.3,14.8H17.1c-1.3,0-2.4,1.1-2.4,2.4v29.3
		c0,1.3,1.1,2.4,2.4,2.4h29.2c1.3,0,2.4-1.1,2.4-2.4V17.2C48.6,15.9,47.6,14.8,46.3,14.8L46.3,14.8z M46.8,46.5
		c0,0.3-0.3,0.6-0.6,0.6H17.1c-0.3,0-0.6-0.3-0.6-0.6V17.2c0-0.3,0.3-0.6,0.6-0.6h29.2c0.3,0,0.6,0.3,0.6,0.6V46.5L46.8,46.5z"/>
</g>
</svg>
