<?xml version="1.0" encoding="utf-8"?>
<!-- Generator: Adobe Illustrator 19.1.0, SVG Export Plug-In . SVG Version: 6.00 Build 0)  -->
<svg version="1.1" id="Слой_1" xmlns="http://www.w3.org/2000/svg" xmlns:xlink="http://www.w3.org/1999/xlink" x="0px" y="0px"
	 viewBox="0 0 49 56" style="enable-background:new 0 0 49 56;" xml:space="preserve">
<style type="text/css">
	.st0{fill:#ED1B34;}
	.st1{fill-rule:evenodd;clip-rule:evenodd;fill:#ED1B34;}
</style>
<path class="st1" d="M49.1,32c0,13.3-11,24-24.5,24C11.1,56,0.1,45.3,0.1,32c0-12.8,10.2-23.2,23.1-23.9V2.7h-5.4
	c-0.8,0-1.4-0.6-1.4-1.3c0-0.7,0.6-1.3,1.4-1.3h13.6c0.8,0,1.4,0.6,1.4,1.3c0,0.7-0.6,1.3-1.4,1.3H26v5.4
	C38.9,8.8,49.1,19.2,49.1,32L49.1,32z M2.8,32c0,11.8,9.8,21.3,21.8,21.3c12,0,21.8-9.6,21.8-21.3c0-11.8-9.7-21.3-21.8-21.3
	C12.6,10.7,2.8,20.2,2.8,32L2.8,32z M26,18.7V32c0,0.7-0.6,1.3-1.4,1.3c-0.8,0-1.4-0.6-1.4-1.3V18.7c0-0.7,0.6-1.3,1.4-1.3
	C25.4,17.4,26,18,26,18.7L26,18.7z"/>
</svg>
