<?xml version="1.0" encoding="utf-8"?>
<!-- Generator: Adobe Illustrator 19.1.0, SVG Export Plug-In . SVG Version: 6.00 Build 0)  -->
<svg version="1.1" id="Слой_1" xmlns="http://www.w3.org/2000/svg" xmlns:xlink="http://www.w3.org/1999/xlink" x="0px" y="0px"
	 viewBox="0 0 27.7 28.3" style="enable-background:new 0 0 27.7 28.3;" xml:space="preserve">
<style type="text/css">
	.st0{fill:#ED1B34;}
</style>
<g>
	<path class="st0" d="M12.3,28.3c-0.1,0-0.3,0-0.4-0.1L0.4,21.5C0.1,21.4,0,21.1,0,20.8V7.5C0,7.2,0.1,7,0.4,6.9l11.5-6.7
		c0.2-0.1,0.5-0.1,0.7,0l8.6,4.9c0.4,0.2,0.5,0.7,0.3,1c-0.2,0.4-0.7,0.5-1,0.3l-8.2-4.7L1.5,7.9v12.5l10.8,6.2l10.8-6.2V8.6
		c0-0.4,0.3-0.8,0.8-0.8s0.8,0.3,0.8,0.8v12.2c0,0.3-0.1,0.5-0.4,0.6l-11.6,6.7C12.6,28.2,12.4,28.3,12.3,28.3z"/>
	<path class="st0" d="M12.3,14.9c-0.1,0-0.3,0-0.4-0.1L1.1,8.5c-0.4-0.2-0.5-0.7-0.3-1C1,7.1,1.5,7,1.8,7.2l10.5,6.1l1.4-0.8
		c0.4-0.2,0.8-0.1,1,0.3c0.2,0.4,0.1,0.8-0.3,1l-1.8,1C12.6,14.9,12.4,14.9,12.3,14.9z"/>
	<path class="st0" d="M12.3,28.1c-0.4,0-0.8-0.3-0.8-0.8v-13c0-0.4,0.3-0.8,0.8-0.8s0.8,0.3,0.8,0.8v13C13,27.7,12.7,28.1,12.3,28.1
		z"/>
	<g>
		<g>
			<path class="st0" d="M16.7,17.7c-0.1,0-0.3,0-0.4-0.1c-0.3-0.2-0.4-0.5-0.4-0.8l0.8-5c0.1-0.4,0.4-0.7,0.9-0.6
				c0.4,0.1,0.7,0.4,0.6,0.9l-0.5,3.1l2.5-1.9c0.3-0.3,0.8-0.2,1.1,0.1c0.3,0.3,0.2,0.8-0.1,1.1l-4,3.1C17,17.7,16.8,17.7,16.7,17.7
				z"/>
			<path class="st0" d="M20.7,14.4C20.7,14.4,20.7,14.4,20.7,14.4c-0.6,0-0.9-0.5-1.1-0.9c-0.1-0.2-0.3-0.5-0.5-0.7l-1.8-0.3
				c-0.1,0-0.2,0-0.2-0.1c-0.4-0.2-0.5-0.7-0.3-1.1l5.8-9.9c0.8-1.3,2.4-1.7,3.7-1c1.3,0.8,1.7,2.4,1,3.7l-5.7,9.7
				C21.4,14.2,21.1,14.4,20.7,14.4z M18.7,11.2l1,0.2c0.1,0,0.2,0,0.2,0.1c0.4,0.2,0.7,0.6,0.9,0.9l5.3-9.1c0.2-0.3,0.2-0.6,0.1-0.9
				c-0.1-0.3-0.3-0.6-0.5-0.7c-0.6-0.3-1.3-0.1-1.6,0.4L18.7,11.2z"/>
		</g>
	</g>
</g>
</svg>
