<?xml version="1.0" encoding="utf-8"?>
<!-- Generator: Adobe Illustrator 19.1.0, SVG Export Plug-In . SVG Version: 6.00 Build 0)  -->
<svg version="1.1" id="Слой_1" xmlns="http://www.w3.org/2000/svg" xmlns:xlink="http://www.w3.org/1999/xlink" x="0px" y="0px"
	 viewBox="0 0 45.9 46" style="enable-background:new 0 0 45.9 46;" xml:space="preserve">
<style type="text/css">
	.st0{fill:#ED1B34;}
</style>
<g>
	<g>
		<path class="st0" d="M17.7,13.6l-10-2.8c-0.8-0.2-1.6,0.2-1.8,1c-0.2,0.8,0.2,1.6,1,1.8l10,2.8c0.1,0,0.3,0.1,0.4,0.1
			c0.6,0,1.2-0.4,1.4-1C18.9,14.6,18.5,13.8,17.7,13.6z"/>
		<path class="st0" d="M17.7,22.2l-10-2.8c-0.8-0.2-1.6,0.2-1.8,1c-0.2,0.8,0.2,1.6,1,1.8l10,2.8c0.1,0,0.3,0.1,0.4,0.1
			c0.6,0,1.2-0.4,1.4-1C18.9,23.2,18.5,22.5,17.7,22.2z"/>
		<path class="st0" d="M17.7,30.8L7.7,28c-0.8-0.2-1.6,0.2-1.8,1c-0.2,0.8,0.2,1.6,1,1.8l10,2.8c0.1,0,0.3,0.1,0.4,0.1
			c0.6,0,1.2-0.4,1.4-1C18.9,31.9,18.5,31.1,17.7,30.8z"/>
		<path class="st0" d="M28.8,33.7c0.1,0,0.3,0,0.4-0.1l10-2.8c0.8-0.2,1.2-1,1-1.8c-0.2-0.8-1-1.2-1.8-1l-10,2.8
			c-0.8,0.2-1.2,1-1,1.8C27.6,33.2,28.2,33.7,28.8,33.7z"/>
		<path class="st0" d="M28.8,16.4c0.1,0,0.3,0,0.4-0.1l10-2.8c0.8-0.2,1.2-1,1-1.8c-0.2-0.8-1-1.2-1.8-1l-10,2.8
			c-0.8,0.2-1.2,1-1,1.8C27.6,16,28.2,16.4,28.8,16.4z"/>
		<path class="st0" d="M42.7,0.1l-19,5.1c-0.5,0.1-1.5,0.1-2,0L3.2,0.1C1.6-0.3,0,0.8,0,2.5v34.9c0,1.4,1.1,2.8,2.5,3.2L21,45.7
			c0.5,0.1,1.1,0.2,1.8,0.2c0.5,0,1.1,0,1.7-0.2l19-5.1c1.4-0.4,2.5-1.7,2.5-3.2V2.5C45.9,0.8,44.3-0.4,42.7,0.1z M3.2,37.9
			c-0.1,0-0.3-0.3-0.3-0.4V3L21,8c0.2,0,0.4,0.1,0.6,0.1v34.8L3.2,37.9z M43.1,37.4c0,0.1-0.2,0.4-0.4,0.4l-18.3,5V8
			c0,0,0.1,0,0.1,0l18.6-5V37.4z"/>
		<path class="st0" d="M28.8,25.1c0.1,0,0.3,0,0.4-0.1l10-2.8c0.8-0.2,1.2-1,1-1.8c-0.2-0.8-1-1.2-1.8-1l-10,2.8
			c-0.8,0.2-1.2,1-1,1.8C27.6,24.6,28.2,25.1,28.8,25.1z"/>
	</g>
</g>
</svg>
