<?xml version="1.0" encoding="utf-8"?>
<!-- Generator: Adobe Illustrator 19.1.0, SVG Export Plug-In . SVG Version: 6.00 Build 0)  -->
<svg version="1.1" id="Слой_1" xmlns="http://www.w3.org/2000/svg" xmlns:xlink="http://www.w3.org/1999/xlink" x="0px" y="0px"
	 viewBox="0 0 27.3 23.9" style="enable-background:new 0 0 27.3 23.9;" xml:space="preserve">
<style type="text/css">
	.st0{fill:#ED1A38;}
</style>
<g>
	<path class="st0" d="M26.6,23.9H0.8c-0.4,0-0.8-0.3-0.8-0.8v-19c0-0.4,0.3-0.8,0.8-0.8h25.8c0.4,0,0.8,0.3,0.8,0.8v19
		C27.3,23.6,27,23.9,26.6,23.9z M1.5,22.4h24.3V4.9H1.5V22.4z"/>
	<g>
		<path class="st0" d="M8.7,14.2H4.3c-0.4,0-0.8-0.3-0.8-0.8V9.9c0-0.4,0.3-0.8,0.8-0.8h4.4c0.4,0,0.8,0.3,0.8,0.8v3.5
			C9.5,13.8,9.1,14.2,8.7,14.2z M5,12.7H8v-2H5V12.7z"/>
		<path class="st0" d="M15.9,14.2h-4.4c-0.4,0-0.8-0.3-0.8-0.8V9.9c0-0.4,0.3-0.8,0.8-0.8h4.4c0.4,0,0.8,0.3,0.8,0.8v3.5
			C16.6,13.8,16.3,14.2,15.9,14.2z M12.2,12.7h2.9v-2h-2.9V12.7z"/>
		<path class="st0" d="M23,14.2h-4.4c-0.4,0-0.8-0.3-0.8-0.8V9.9c0-0.4,0.3-0.8,0.8-0.8H23c0.4,0,0.8,0.3,0.8,0.8v3.5
			C23.8,13.8,23.5,14.2,23,14.2z M19.4,12.7h2.9v-2h-2.9V12.7z"/>
		<path class="st0" d="M8.7,20.7H4.3c-0.4,0-0.8-0.3-0.8-0.8v-3.5c0-0.4,0.3-0.8,0.8-0.8h4.4c0.4,0,0.8,0.3,0.8,0.8v3.5
			C9.5,20.4,9.1,20.7,8.7,20.7z M5,19.2H8v-2H5V19.2z"/>
		<path class="st0" d="M15.9,20.7h-4.4c-0.4,0-0.8-0.3-0.8-0.8v-3.5c0-0.4,0.3-0.8,0.8-0.8h4.4c0.4,0,0.8,0.3,0.8,0.8v3.5
			C16.6,20.4,16.3,20.7,15.9,20.7z M12.2,19.2h2.9v-2h-2.9V19.2z"/>
		<path class="st0" d="M23,20.7h-4.4c-0.4,0-0.8-0.3-0.8-0.8v-3.5c0-0.4,0.3-0.8,0.8-0.8H23c0.4,0,0.8,0.3,0.8,0.8v3.5
			C23.8,20.4,23.5,20.7,23,20.7z M19.4,19.2h2.9v-2h-2.9V19.2z"/>
	</g>
	<g>
		<g>
			<path class="st0" d="M4.9,7.1c-0.4,0-0.8-0.3-0.8-0.8V0.8C4.1,0.3,4.4,0,4.9,0s0.8,0.3,0.8,0.8v5.6C5.6,6.8,5.3,7.1,4.9,7.1z"/>
			<path class="st0" d="M7.4,7.1C7,7.1,6.6,6.8,6.6,6.4V0.8C6.6,0.3,7,0,7.4,0s0.8,0.3,0.8,0.8v5.6C8.1,6.8,7.8,7.1,7.4,7.1z"/>
		</g>
		<g>
			<path class="st0" d="M19.9,7.1c-0.4,0-0.8-0.3-0.8-0.8V0.8c0-0.4,0.3-0.8,0.8-0.8s0.8,0.3,0.8,0.8v5.6
				C20.7,6.8,20.4,7.1,19.9,7.1z"/>
			<path class="st0" d="M22.5,7.1c-0.4,0-0.8-0.3-0.8-0.8V0.8c0-0.4,0.3-0.8,0.8-0.8s0.8,0.3,0.8,0.8v5.6
				C23.2,6.8,22.9,7.1,22.5,7.1z"/>
		</g>
	</g>
</g>
</svg>
