<?xml version="1.0" encoding="utf-8"?>
<!-- Generator: Adobe Illustrator 19.1.0, SVG Export Plug-In . SVG Version: 6.00 Build 0)  -->
<svg version="1.1" id="Слой_1" xmlns="http://www.w3.org/2000/svg" xmlns:xlink="http://www.w3.org/1999/xlink" x="0px" y="0px"
	 viewBox="0 0 461.3 160.6" style="enable-background:new 0 0 461.3 160.6;" xml:space="preserve">
<style type="text/css">
	.st0{fill:#ED1B2F;}
	.st1{fill:#FFFFFF;}
</style>
<g>
	<path class="st0" d="M5.2,65.8c-2.9-0.9-5.2-4-5.2-6.8v-5.8c0-2.9,2.3-4.5,5.2-3.6c2.9,0.9,5.2,4,5.2,6.8v5.8
		C10.4,65.1,8.1,66.7,5.2,65.8z"/>
	<path class="st1" d="M205.7,135.4c-0.4,0.2-1.2,0.4-1.8,0.4c-2,0-2.8-1.3-2.8-4.5v-10.7h4.1c0.6,0,1-0.3,1.3-0.5
		c0.3-0.3,0.4-0.7,0.4-1.1c0-0.8-0.6-1.6-1.7-1.6h-4.1V113c0-2.3-3.6-2.3-3.6,0v4.4h-2.4c-1.1,0-1.7,0.8-1.7,1.6
		c0,0.4,0.2,0.8,0.4,1.1c0.2,0.2,0.6,0.5,1.3,0.5h2.4v10.7c0,5.2,2.2,7.8,6.4,7.8c1,0,2.1-0.1,3.3-0.7c0.7-0.4,1-0.9,1-1.6
		c0-0.6-0.3-1.2-0.8-1.5C207,135,206.3,135.1,205.7,135.4z"/>
	<path class="st1" d="M225.8,117.5L225.8,117.5c-2.2-0.6-4.4-0.6-6.3,0c-3.3,0.9-5.9,3.4-7,6.8c-1.2,3.7-0.6,7.9,1.8,11
		c1.9,2.3,5.1,3.7,8.5,3.7c0.1,0,0.1,0,0.2,0c2.9,0,5.5-0.9,7.3-2.5c0.9-0.9,0.8-1.9,0.2-2.5c-0.6-0.6-1.7-0.8-2.6,0
		c-1.8,1.4-3.8,1.6-5.2,1.6c-3.5,0-6.4-2.2-7.1-5.5h15.7c0.8,0,1.5-0.2,1.9-0.7c0.4-0.4,0.5-0.9,0.5-1.6
		C233.4,122.8,230.5,118.9,225.8,117.5z M215.4,127.1c0.3-3.2,2.3-5.5,5.2-6.3c1.2-0.3,2.6-0.4,3.8-0.1l0.4,0.1
		c2.9,0.7,4.9,3.2,5.3,6.3H215.4z"/>
	<path class="st1" d="M256.8,132.8c-0.6-0.1-1.2,0.2-1.5,0.6c-1.2,1.6-3.3,2.6-5.7,2.6c-2.2,0-4.3-1-5.6-2.6
		c-1.1-1.3-1.7-3.2-1.7-5.2c0-4.6,3-8,7.2-8c1.5,0,3.7,0.4,5.4,2.4c0.4,0.5,1,0.7,1.6,0.6c0.6-0.1,1.2-0.6,1.4-1.2
		c0.2-0.5,0.1-1.1-0.3-1.5c-2.2-2.5-4.6-3.6-7.7-3.6c-6.3,0-10.8,4.2-11.1,10.5c-0.2,3.1,0.7,6.1,2.5,8.2c2,2.3,5.2,3.7,8.4,3.7
		c3.3,0,6.4-1.4,8.3-3.7c0.5-0.5,0.6-1.1,0.4-1.7C258.1,133.3,257.5,132.9,256.8,132.8z"/>
	<path class="st1" d="M274.6,117.1c-3.2,0-5.9,1.2-7.4,3.3v-7.5c0-2.1-3.6-2.1-3.6,0v24.4c0,1.1,0.7,1.8,1.9,1.8
		c1.1,0,1.8-0.7,1.8-1.8v-10.2c0-4.2,3.7-6.7,7.4-6.7c3,0,6,2.3,6,6.1v10.8c0,1.1,0.7,1.8,1.8,1.8c1.1,0,1.8-0.7,1.8-1.8v-10.8
		C284.1,120.3,279.3,117.1,274.6,117.1z"/>
	<path class="st1" d="M300.5,117.1c-3.3,0-5.9,1.2-7.5,3.4v-1.4c0-2.3-3.6-2.3-3.6,0v18.3c0,1.1,0.7,1.7,1.9,1.7
		c1.1,0,1.8-0.7,1.8-1.7v-9.5c0-4.4,3.8-7.4,7.4-7.4c3,0,6,2.3,6,6.1v10.8c0,1,0.7,1.7,1.8,1.7c1.1,0,1.8-0.7,1.8-1.7v-10.8
		C310.1,120.3,305.3,117.1,300.5,117.1z"/>
	<path class="st1" d="M329.4,117.5c-1-0.3-1.9-0.4-3.1-0.4c-1.3,0-2.3,0.1-3.2,0.4c-4.4,1.2-7.3,4.9-7.8,9.9c-0.1,3.2,0.7,5.9,2.6,8
		c2,2.4,5,3.8,8.4,3.8c3.4,0,6.4-1.3,8.4-3.8c1.8-2.2,2.7-4.9,2.5-8.1C336.9,122.5,333.9,118.8,329.4,117.5z M332,133.2
		c-1.4,1.6-3.6,2.6-5.6,2.6c-2.2,0-4.2-1-5.6-2.6c-1.1-1.3-1.7-3.1-1.7-5c0-3.7,2-6.6,5.2-7.4c0.7-0.2,1.4-0.3,2.1-0.3
		c0.7,0,1.5,0.1,2.2,0.3c3.2,0.8,5.2,3.8,5.2,7.5C333.7,130.1,333,131.9,332,133.2z"/>
	<path class="st1" d="M344.5,111.1c-1,0-1.8,0.7-1.8,1.7v24.5c0,1,0.8,1.7,1.8,1.7c1,0,1.8-0.7,1.8-1.7v-24.5
		C346.3,111.9,345.5,111.1,344.5,111.1z"/>
	<path class="st1" d="M365.7,117.5c-1-0.3-1.9-0.4-3.1-0.4c-1.3,0-2.3,0.1-3.2,0.4c-4.4,1.2-7.3,4.9-7.8,9.9c-0.1,3.2,0.7,5.9,2.6,8
		c2,2.4,5,3.8,8.4,3.8c3.4,0,6.4-1.3,8.4-3.8c1.8-2.2,2.7-4.9,2.5-8.1C373.1,122.5,370.1,118.8,365.7,117.5z M368.2,133.2
		c-1.4,1.6-3.6,2.6-5.6,2.6c-2.2,0-4.2-1-5.6-2.6c-1.1-1.3-1.7-3.1-1.7-5c0-3.7,2-6.6,5.2-7.4c0.7-0.2,1.4-0.3,2.1-0.3
		c0.7,0,1.5,0.1,2.2,0.3c3.2,0.8,5.2,3.8,5.2,7.5C369.9,130.1,369.3,131.9,368.2,133.2z"/>
	<path class="st1" d="M397.5,117.3c-1.1,0-1.8,0.7-1.8,1.8v0.6c-1.6-1.8-4.3-2.5-6.4-2.5c-1.4,0-2.7,0.2-4,0.7
		c-4.4,1.8-6.9,5.8-6.7,10.9c0.1,4.3,2.6,8.1,6.4,9.7c1.4,0.6,2.9,0.8,4.5,0.8c2.6,0,4.8-1.1,6.2-2.9v1.2c0,4.3-3.7,5.8-6.9,5.8
		c-2.2,0-3.7-0.5-5.6-2c-0.9-0.8-2-0.6-2.6,0c-0.6,0.6-0.8,1.6,0.2,2.6c2.1,2,4.6,2.9,8,2.9c6.3,0,10.4-3.6,10.4-9.3v-18.4
		C399.4,118,398.6,117.3,397.5,117.3z M395.7,129.8c0,3.2-2.7,5.8-6.2,6c0,0,0,0-0.1,0c-2.9,0-5.6-1.7-6.6-4.2
		c-0.3-0.8-0.5-1.8-0.6-2.9c-0.1-2.8,0.9-5,2.9-6.7l0.3-0.2c2-1.4,4.6-1.6,7-0.5c2.2,1,3.3,2.7,3.3,5.3V129.8z"/>
	<path class="st1" d="M405.1,112.9v1.8c0,1.1,0.9,1.7,1.8,1.7c0.9,0,1.9-0.6,1.9-1.7v-1.8C408.8,110.6,405.1,110.6,405.1,112.9z"/>
	<path class="st1" d="M405.2,119.1v18.4c0,1.1,0.9,1.6,1.8,1.6c0.9,0,1.8-0.6,1.8-1.6v-18.4C408.8,116.9,405.2,117,405.2,119.1z"/>
	<path class="st1" d="M429,117.5L429,117.5c-2.2-0.6-4.4-0.6-6.3,0c-3.3,0.9-5.9,3.4-7,6.8c-1.2,3.7-0.6,7.9,1.8,11
		c1.9,2.3,5.1,3.7,8.5,3.7c0.1,0,0.1,0,0.2,0c2.9,0,5.5-0.9,7.3-2.5c0.9-0.9,0.8-1.9,0.2-2.5c-0.6-0.6-1.7-0.8-2.6,0
		c-1.8,1.4-3.8,1.6-5.2,1.6c-3.5,0-6.4-2.2-7.1-5.5h15.7c0.8,0,1.5-0.2,1.9-0.7c0.4-0.4,0.5-0.9,0.5-1.6
		C436.6,122.8,433.7,118.9,429,117.5z M418.6,127.1c0.3-3.2,2.3-5.5,5.2-6.3c1.1-0.3,2.6-0.4,3.8-0.1l0.4,0.1
		c2.9,0.7,4.9,3.2,5.3,6.3H418.6z"/>
	<path class="st1" d="M451.7,126.2l-0.8-0.1c-3.2-0.2-5.2-0.5-5.2-2.4c0-2.2,3.3-3.2,5.6-3.2c1.2,0,5,0,5.9,2.3
		c0.3,1,1.4,1.2,2.2,0.9c0.8-0.3,1.5-1.1,1.2-2.2c-1.2-3-4.2-4.4-9.2-4.4c-3.7,0-9.2,1.7-9.2,6.6c0,5.2,4.9,5.7,9.2,6.1l0.6,0
		c3.1,0.2,5.7,0.4,5.7,2.6c0,2.5-4.1,3.4-6,3.4c-2.8,0-5.9-0.9-6.3-2.5c-0.1-0.7-0.5-1.2-1.1-1.4c-0.6-0.2-1.4,0-1.9,0.5
		c-0.4,0.4-0.6,1-0.4,1.5c0.9,4.7,7.1,5.2,9.7,5.2c3.6,0,9.6-1.4,9.6-6.7C461.3,127.1,456.2,126.6,451.7,126.2z"/>
	<path class="st1" d="M336.3,63c3.2-2.5,5.1-6.5,5.1-11.1c0-13.4-12.3-18.1-23.9-18.1h-22.2c-2.8,0-5.1,2.3-5.1,5.1v53.8
		c0,2.8,2.3,5.1,5.1,5.1h24.4c16.5,0,26-7.2,26-19.7C345.7,71.3,342.4,66,336.3,63z M300.3,43.3h17.2c1.4,0,13.8,0.2,13.8,8.6
		c0,6.2-7.3,7.5-13.5,7.5h-17.5V43.3z M319.7,88.2h-19.4V68.9h22.2c3.9,0,12.9,0.9,12.9,9.1C335.4,84.8,330.1,88.2,319.7,88.2z"/>
	<path class="st1" d="M267.8,93.2l7.4,4.4c2.2,1.3,4.9,0.5,6.3-1.9c1.2-2,1.1-4.9-1.4-6.4L255.7,75c-2.2-1.3-4.8-0.5-6.2,1.9
		c-1.4,2.4-0.8,5.2,1.4,6.4l7.1,4.1c-1.1,0.3-2.3,0.5-3.5,0.5h-14.6c-7.1,0-12.9-5.8-12.9-12.9V56.4c0-7.1,5.8-12.9,12.9-12.9h14.6
		c7.1,0,12.9,5.8,12.9,12.9v16.4c0,1.1,0.6,2.2,1.6,2.7l4.5,2.6c1.6,0.9,3.5-0.2,3.6-2c0-0.4,0-0.7,0-1.1V56.4
		c0-12.5-10.1-22.6-22.6-22.6h-14.6c-12.5,0-22.6,10.1-22.6,22.6v18.7c0,12.5,10.1,22.6,22.6,22.6h14.6
		C259.4,97.7,264,96,267.8,93.2z"/>
	<path class="st1" d="M137.9,56.4v3.7c0,0.3,0,0.5,0,0.7v51.6c0,2-0.6,3.9-1.8,5.5c-1.7,2.3-1.1,5.6,1.2,7.3c0.9,0.7,2,1,3,1
		c1.6,0,3.2-0.8,4.2-2.2c2.4-3.4,3.7-7.4,3.7-11.6v-57c0-0.1,0-0.1,0-0.2v-2c0-2.9-2.3-4.5-5.2-3.6
		C140.2,50.5,137.9,53.5,137.9,56.4z"/>
	<path class="st1" d="M57.7,145.1l-42.5-24.4c-3-1.7-4.8-5-4.8-8.5v-33c0-0.6-0.1-1.2-0.3-1.7c-0.7-2.3-2.6-4.3-4.9-5
		C2.3,71.5,0,73.1,0,76v36.2c0,7.2,3.8,13.9,10,17.6l45.3,26.1c2.5,1.4,5.1,0.2,5.7-2.8C61.7,150.1,60.2,146.5,57.7,145.1z"/>
	<path class="st1" d="M148.4,138l-31.9-18.4c-0.4-0.2-0.8-0.4-1.2-0.5c-2.5-0.9-5.7-0.3-7.6,1.5c-2.2,2-2,4.9,0.5,6.3l6.9,3.9
		l-33,18.9c-1,0.6-1.9,0.2-2.4,0c-0.4-0.3-1.2-0.9-1.2-2V78.3c0-4.6-2.5-8.8-6.4-11.1l-54-31.1c-1-0.6-1.2-1.5-1.2-2.1
		c0-0.5,0.2-1.5,1.2-2l32.4-18.4c7.5-4.2,16.5-4.3,24-0.2c1,0.6,1.2,1.5,1.2,2c0,0.5-0.1,1.3-0.9,1.9c-0.2,0.1-0.3,0.2-0.5,0.3
		l-18,11c-2.5,1.5-3.2,4.7-1.7,7.2c1.5,2.5,4.7,3.2,7.2,1.7l18.2-11.1c0.2-0.1,0.3-0.2,0.5-0.3c11.6-6.7,26-6.8,37.7-0.1l11.9,6.8
		c0.7,0.4,0.8,1.1,0.8,1.4c0,0.4-0.1,1-0.8,1.4L83.1,61.6c-2.5,1.4-2.9,4.2-0.7,6.3c2.1,2.1,5.9,2.7,8.5,1.3l44.6-24.4
		c3.8-2.2,6.1-6.1,6.1-10.5c0-4.4-2.3-8.3-6.1-10.5L123.6,17c-11.6-6.6-25.1-8.1-37.6-4.4c-0.8-3.5-3.1-6.5-6.4-8.3
		C68.9-1.5,56.2-1.4,45.5,4.6L13.1,23c-4,2.3-6.5,6.4-6.5,11.1S9,42.9,13,45.2l54,31.1c0.7,0.4,1.2,1.2,1.2,2v69.4
		c0,4.6,2.4,8.8,6.4,11.1c2,1.2,4.2,1.7,6.4,1.7c2.2,0,4.4-0.6,6.4-1.7l38.3-22l14.8,8.5c2.5,1.4,6.3,0.9,8.5-1.1
		C151.1,142.2,150.9,139.4,148.4,138z"/>
	<g>
		<path class="st1" d="M199.6,34.1c-2.8-0.9-5.1,0.7-5.1,3.5v5.6c0,2.8,2.3,5.8,5.1,6.6c2.8,0.9,5.1-0.7,5.1-3.5v-5.6
			C204.7,37.9,202.4,34.9,199.6,34.1z"/>
		<path class="st1" d="M199.6,54c-2.8-0.9-5.1,0.7-5.1,3.5l0,35.9c0,2.7,2.2,4.7,5.1,4.7c2.5,0,5-1.6,5-4.7l0-32.7
			C204.7,57.8,202.4,54.8,199.6,54z"/>
	</g>
</g>
</svg>
