<svg xmlns="http://www.w3.org/2000/svg" xmlns:xlink="http://www.w3.org/1999/xlink" viewBox="0 0 49 58">
  <metadata><?xpacket begin="﻿" id="W5M0MpCehiHzreSzNTczkc9d"?>
<x:xmpmeta xmlns:x="adobe:ns:meta/" x:xmptk="Adobe XMP Core 5.6-c138 79.159824, 2016/09/14-01:09:01        ">
   <rdf:RDF xmlns:rdf="http://www.w3.org/1999/02/22-rdf-syntax-ns#">
      <rdf:Description rdf:about=""/>
   </rdf:RDF>
</x:xmpmeta>                
<?xpacket end="w"?></metadata>
<defs>
    <style>
      .cls-1 {
        fill: #fff;
        fill-rule: evenodd;
      }
    </style>
  </defs>
  <path id="ико" class="cls-1" d="M1730.97,2449.56a1.313,1.313,0,0,0-.01-0.28c-0.33-9.93-3.85-17.29-6-21.77a32.95,32.95,0,0,1-1.41-3.15c-0.98-2.94,1.69-4.91,1.82-5a1.336,1.336,0,0,0,.21-0.2,7.433,7.433,0,0,0,3.17-6.24c0-5.84-10.29-9.92-25.03-9.92-15.28,0-20.78,2.32-21.01,2.42a1.208,1.208,0,0,0-.71,1.18,21.051,21.051,0,0,0,8.77,15.98,1.24,1.24,0,0,0,.62.18h5.96c0.93,0.41,5.34,2.65,5.62,7.52a1.193,1.193,0,0,0,1,1.11,2.542,2.542,0,0,0,.41.03,4.614,4.614,0,0,0,3.39-1.7c2.34,2.15,2.55,4.48,3.06,10.16l0.05,0.54c0.31,3.46,2.24,5.39,3.79,6.93,1.85,1.85,2.44,2.59,1.33,4.55a22.261,22.261,0,0,0-1.07,2.2,4.922,4.922,0,0,0,1.3,5.66,4.808,4.808,0,0,0,3.2,1.24,4.914,4.914,0,0,0,2.51-.7,37.039,37.039,0,0,0,7.59-5.98,5.106,5.106,0,0,0,1.46-3.61C1730.99,2450.32,1730.98,2449.94,1730.97,2449.56Zm-9.65-24.43a30.694,30.694,0,0,0,1.51,3.42c2.02,4.2,5.3,11.05,5.75,20.15a8.03,8.03,0,0,1-2.02.55,0.394,0.394,0,0,1-.36-0.15,87.07,87.07,0,0,1-10.25-18.3c-2.21-5.71-.49-7.92.06-8.45a28.947,28.947,0,0,0,5.23-1.08A6.237,6.237,0,0,0,1721.32,2425.13Zm-36.88-17.79c1.97-.59,7.75-1.96,19.28-1.96,15.63,0,22.67,4.41,22.67,7.54,0,4.94-5.88,7.45-17.48,7.45h-17.15A19.12,19.12,0,0,1,1684.44,2407.34Zm21.99,20.24a3.292,3.292,0,0,1-1.26,1.24,10.535,10.535,0,0,0-3.53-6.06h4a4.266,4.266,0,0,1,1.64,2.79,2.554,2.554,0,0,1-.67,1.8A1.018,1.018,0,0,0,1706.43,2427.58Zm14.31,30.66a2.477,2.477,0,0,1-2.96-.27,2.539,2.539,0,0,1-.67-2.95,19.3,19.3,0,0,1,.95-1.94c2.05-3.65.04-5.65-1.73-7.42-1.4-1.41-2.86-2.86-3.09-5.45l-0.05-.55c-0.56-6.15-.83-9.07-4.03-11.89a4.9,4.9,0,0,0,.48-2.27,5.4,5.4,0,0,0-.9-2.74h0.17c1.47,0,2.86-.05,4.17-0.13-0.72,1.76-1.04,4.63.67,9.04a90.6,90.6,0,0,0,10.59,18.91,2.748,2.748,0,0,0,2.17,1.05,2.055,2.055,0,0,0,.35-0.02,10.5,10.5,0,0,0,1.72-.38,2.753,2.753,0,0,1-.74,1.42A34.735,34.735,0,0,1,1720.74,2458.24Z" transform="translate(-1682 -2403)"/>
</svg>
