<svg xmlns="http://www.w3.org/2000/svg" viewBox="0 0 55 67"><defs><style>.cls-1{fill:#ffffff;}</style></defs><g id="cube" data-name="cube"><g id="Слой_1-2" data-name="Слой 1"><path class="cls-1" d="M0,50V17C2,15.66,28,0,28,0S46.67,11.67,55,17V50c-1.95,1.34-27,17-27,17S8.33,55.33,0,50ZM26.16,63.15c0-2.25,0-17.88,0-24.37,0-1.15-.1-2.7,1.42-2.73S29,37.6,29,38.72c0,1.33,0,17.07,0,24.34,7.51-4.61,23.37-14,23.37-14s-.28-19.17-.28-28.53C45.64,24.45,40,27.93,34.31,31.32c-1.14.68-2.61,2.6-3.79.79s1.21-2.37,2.29-3.05c6-3.8,12.09-7.47,18.56-11.43C44,13.14,27.59,2.88,27.59,2.88S11,13.13,3.77,17.58c2,1.3,14.71,9.17,19.52,12.15.8.5,2,1,1.42,2.23-.79,1.61-1.95.62-2.92.08-1.16-.65-13.46-8.16-19.07-11.56,0,9,.34,28.26.34,28.26S18.62,58.54,26.16,63.15Z"/></g></g></svg>