<svg xmlns="http://www.w3.org/2000/svg" viewBox="0 0 917 675.63"><defs><style>.cls-1{fill:#2b4d93;}.cls-2{fill:#c20d19;}</style></defs><title>Ресурс 10</title><g id="Слой_2" data-name="Слой 2"><g id="Layer_1" data-name="Layer 1"><path class="cls-1" d="M458.5,63.5"/><path class="cls-1" d="M630.35,126.48H558.6V63.24H494.85V0h-73V63.24H358.6v63.24h-72v28.11s28,7.94,58,17.31c111.5,34.88,117.25,34.63,226.5,0,0,0,58.91-18.07,59.16-17.31S630.35,126.48,630.35,126.48ZM415.6,119h-37V82h37Zm63.25-64H442.6V18.75h36.25Zm63.5,63.75H505.6V82h36.75Z"/><path class="cls-1" d="M96.33,163.67s109-1.33,199,29.67c86.56,29.81,110.59,42,163,42,61.88,0,158.66-40.83,180-47.33,16.88-5.14,46.67-19.33,182.33-24.33l-45,37s-84-2-194.66,46c0,0-69.33,27.33-122.67,26.33v36.67s58.33-1.33,105.33-16.33S696.34,246,729,246.67c0,0-28.9,21-64,51.33-51,44.12-123.32,102.79-206.67,102V345.33s-32.08-1.11-71.67-11.67C343.83,322.24,244.56,281.62,178,282Z"/><path class="cls-1" d="M127.51,645.65a31,31,0,0,0,13.36,3.28c5.54,0,8.49-2.24,8.49-5.74,0-3.26-2.55-5.16-9-7.53-8.87-3-14.63-8-14.63-15.64,0-9.16,7.59-16.11,20.17-16.11a33.78,33.78,0,0,1,13.63,2.63l-2.7,9.73a25.89,25.89,0,0,0-11.15-2.5c-5.22,0-7.76,2.44-7.76,5.11,0,3.4,3,4.92,9.89,7.52,9.42,3.48,13.85,8.45,13.85,15.88,0,9-6.88,16.59-21.52,16.59-6.1,0-12.12-1.58-15.12-3.32l2.45-9.91Z"/><path class="cls-1" d="M169.14,601.86h12V624h.15a14.1,14.1,0,0,1,4.76-3.95,13.55,13.55,0,0,1,6.26-1.53c7.67,0,13.52,5.33,13.52,17v22.58h-12V636.8c0-5.08-1.74-8.56-6.23-8.56a6.38,6.38,0,0,0-6,4.21,7.93,7.93,0,0,0-.4,2.74v22.89h-12V601.86Z"/><path class="cls-1" d="M228,608.65c0,3.27-2.53,6-6.49,6a5.88,5.88,0,0,1-6.24-6c-.09-3.48,2.45-6.16,6.32-6.16a6.08,6.08,0,0,1,6.41,6.16Zm-12.41,49.42h0V619.39h12v38.68Z"/><path class="cls-1" d="M237.21,632.36c0-5.07-.17-9.43-.3-13h10.44l.55,5.37h.17c2.84-4.11,7.27-6.27,12.88-6.27,8.48,0,16.07,7.38,16.07,19.7,0,14.1-8.94,20.75-17.55,20.75-4.7,0-8.33-1.92-10.06-4.43h-.17v19.21h-12V632.36Zm12,9.15h0a12.69,12.69,0,0,0,.26,2.52,7.31,7.31,0,0,0,7,5.69c5.23,0,8.32-4.39,8.32-11,0-6.1-2.78-10.84-8.15-10.84a7.55,7.55,0,0,0-7.19,6.08,10.32,10.32,0,0,0-.26,2.14v5.37Z"/><path class="cls-1" d="M284.57,632.36c0-5.07-.17-9.43-.32-13H294.7l.51,5.37h.19c2.84-4.11,7.28-6.27,12.89-6.27,8.52,0,16.11,7.38,16.11,19.7,0,14.1-9,20.75-17.6,20.75-4.67,0-8.31-1.92-10.06-4.43h-.14v19.21h-12V632.36Zm12,9.15h0a14.22,14.22,0,0,0,.2,2.52,7.37,7.37,0,0,0,7.06,5.69c5.21,0,8.31-4.39,8.31-11,0-6.1-2.78-10.84-8.15-10.84A7.57,7.57,0,0,0,296.8,634a11.37,11.37,0,0,0-.2,2.14v5.37Z"/><path class="cls-1" d="M344.3,608.65c0,3.27-2.53,6-6.47,6a6.09,6.09,0,1,1,0-12.16,6.06,6.06,0,0,1,6.44,6.16Zm-12.47,49.42h0V619.39H344v38.68Z"/><path class="cls-1" d="M353.58,631.71c0-4.75-.13-8.85-.3-12.32h10.43l.55,5.36h.25a14.07,14.07,0,0,1,12-6.27c7.91,0,13.74,5.32,13.74,16.7v22.89h-12V636.61c0-4.9-1.74-8.37-6.08-8.37a6.34,6.34,0,0,0-6.08,4.52,8.29,8.29,0,0,0-.47,3.06v22.26h-12V631.71Z"/><path class="cls-1" d="M436.91,619.39c-.21,2.53-.32,5.69-.32,11.45v21.56c0,7.48-1.49,13.58-5.9,17.53-4.22,3.56-10,4.74-15.64,4.74-5.05,0-10.43-1.1-14.06-3.1l2.44-9.06a23.77,23.77,0,0,0,11.3,3c5.68,0,10-3.15,10-10.29v-2.5h-.13c-2.24,3.3-6,5-10.44,5-9.49,0-16.38-7.72-16.38-18.94,0-12.4,8.15-20.33,17.63-20.33,5.22,0,8.55,2.3,10.55,5.48h.19l.36-4.58Zm-12.34,15.8h0a7.52,7.52,0,0,0-.23-2.22c-.91-3.16-3.16-5.37-6.44-5.37-4.42,0-7.9,3.95-7.9,11.06,0,5.72,2.84,10.23,7.9,10.23a6.59,6.59,0,0,0,6.32-4.87,10.59,10.59,0,0,0,.34-3.15v-5.69Z"/><path class="cls-1" d="M501.78,656.51c-2.21,1.17-7.11,2.37-13.65,2.37-18.42,0-27.9-11.53-27.9-26.7,0-18.17,13-28.27,29.09-28.27,6.3,0,11,1.26,13.09,2.35l-2.36,9.5a28,28,0,0,0-10.11-1.91c-9.64,0-17.06,5.85-17.06,17.65,0,10.67,6.32,17.4,17.07,17.4a31,31,0,0,0,10.11-1.7l1.73,9.32Z"/><path class="cls-1" d="M546.17,638.35c0,14.06-10.11,20.6-20.51,20.6-11.33,0-20.1-7.49-20.1-19.94s8.38-20.51,20.71-20.51c11.83,0,19.89,8.17,19.89,19.86Zm-28.1.34h0c0,6.65,2.83,11.67,7.88,11.67,4.74,0,7.72-4.7,7.72-11.67,0-5.71-2.21-11.63-7.72-11.63-5.68,0-7.88,5.92-7.88,11.63Z"/><path class="cls-1" d="M553.53,631.71q0-7.12-.32-12.32h10.12l.55,5.21h.29a13.49,13.49,0,0,1,11.69-6.12c4.9,0,8.9,2.54,10.58,6.59h.15a18.79,18.79,0,0,1,5.06-4.66,13.41,13.41,0,0,1,7.27-1.93c7.42,0,13.09,5.32,13.09,16.78v22.8H600.28v-21c0-5.69-1.83-8.85-5.68-8.85a5.74,5.74,0,0,0-5.47,4.12,10.74,10.74,0,0,0-.56,3.14v22.58H576.84V636.45c0-5-1.62-8.21-5.57-8.21a6,6,0,0,0-5.53,4.26,6.86,6.86,0,0,0-.52,3v22.56H553.53V631.71Z"/><path class="cls-1" d="M621.66,632.36c0-5.07-.23-9.43-.31-13h10.42l.47,5.37h.19c2.87-4.11,7.29-6.27,12.93-6.27,8.37,0,16.12,7.38,16.12,19.7,0,14.1-9,20.75-17.64,20.75-4.68,0-8.27-1.92-10-4.43h-.12v19.21h-12V632.36Zm12,9.15h0a15.65,15.65,0,0,0,.16,2.52,7.43,7.43,0,0,0,7.11,5.69c5.19,0,8.26-4.39,8.26-11,0-6.1-2.75-10.84-8.12-10.84a7.58,7.58,0,0,0-7.25,6.08,12.35,12.35,0,0,0-.16,2.14v5.37Z"/><path class="cls-1" d="M690.91,658.08l-.68-3.9H690c-2.52,3.12-6.39,4.76-11.08,4.76-7.83,0-12.53-5.71-12.53-11.91,0-9.95,9-14.84,22.73-14.69v-.63c0-2-1.09-5-7-5a21.65,21.65,0,0,0-10.68,2.92l-2.21-7.74a31.91,31.91,0,0,1,15.05-3.43c13,0,17.06,7.6,17.06,16.7v13.42a64.87,64.87,0,0,0,.47,9.46Zm-1.32-18.31h0c-6.31-.06-11.31,1.46-11.31,6.16,0,3,2,4.55,4.75,4.55a6.53,6.53,0,0,0,6.25-4.42,9.21,9.21,0,0,0,.31-2v-4.26Z"/><path class="cls-1" d="M710.75,631.71c0-4.75-.17-8.85-.31-12.32h10.43l.47,5.36h.32a14,14,0,0,1,11.94-6.27c7.92,0,13.85,5.32,13.85,16.7v22.89h-12V636.61c0-4.9-1.74-8.37-6-8.37a6.48,6.48,0,0,0-6.16,4.52,8.49,8.49,0,0,0-.46,3.06v22.26h-12V631.71Z"/><path class="cls-1" d="M764.62,619.39l5.84,19c.63,2.31,1.36,5.17,1.89,7.27h.17c.57-2.1,1.22-5,1.77-7.27l4.75-19h12.91l-9,25.43c-5.48,15.4-9.28,21.64-13.59,25.44a23.35,23.35,0,0,1-11.64,5.37l-2.53-10.28a13.71,13.71,0,0,0,5.21-2,14.67,14.67,0,0,0,5.05-4.75,4.1,4.1,0,0,0,.62-1.83,4.76,4.76,0,0,0-.62-2l-14.16-35.38Z"/><path class="cls-2" d="M111.35,464.51H90.74c-4.82,0-8,2.54-9.33,7.34L65.75,530.21c-1,3.71-2.11,8.46-3.22,14.11h-.68c-1.92-8.65-3-13.23-3.17-13.93L43,471.87c-1.16-4.82-4.33-7.36-9.16-7.36H13.07c-5.57,0-8.65,3-8.88,8.66L0,574.52H21.6l3.52-92.13H26l19.14,71c1.28,4.81,4.56,7.35,9.5,7.35H70c4.82,0,8-2.54,9.32-7.35l18.81-71h1.22l3.63,91.15,0,1h21.78l-4.53-101.36c-.23-5.67-3.3-8.66-8.87-8.66Zm76.22-2h0c-17.2,0-29.38,4.16-36.21,12.41s-10.23,23.21-10.23,44.62,3.43,36.46,10.23,44.61,19,12.43,36.21,12.43,29.53-4.16,36.36-12.43,10.23-23.18,10.23-44.61-3.45-36.43-10.23-44.62-19.07-12.41-36.36-12.41Zm18.35,87.41h0c-3.24,5.22-9.42,7.87-18.35,7.87s-15-2.65-18.19-7.87c-3.35-5.39-5-15.6-5-30.38s1.68-25,5-30.36c3.23-5.22,9.36-7.87,18.19-7.87s15.1,2.65,18.35,7.87c3.35,5.41,5,15.61,5,30.36s-1.7,25-5,30.38ZM321.4,528h0a21.34,21.34,0,0,0-6.84-4.45c6.25-1.26,10.89-4,13.85-8.06,3.31-4.58,5-11.24,5-19.74,0-12.29-3.06-20.9-9.11-25.63s-16.16-7-30.29-7c-17.23,0-30.75.47-40.22,1.41l-.94.12V574.52h21.92V531.19l18.76.17c6,0,9.89,2.94,11.76,8.91l9,34.25h23.47l-10.29-35c-1.11-4.9-3.14-8.76-6-11.49Zm-14-18.31h0c-2.4,2.22-7.08,3.39-13.9,3.48H274.75v-31.9H293.5c6.84,0,11.51,1.08,13.92,3.17S311,490.76,311,497s-1.2,10.54-3.58,12.71Zm148.37,34.71h0c-.22,1.59-.52,4-.89,7.32-.32,2.67-.56,4.73-.76,6.19H452.5c-.45-4.24-1.16-8.84-2.17-13.71l-13.57-72.57a8.49,8.49,0,0,0-2.83-5.15,8.05,8.05,0,0,0-5.42-2H409c-4.66,0-7.56,2.46-8.38,7.11L387.06,544c-.71,3.56-1.52,8.23-2.43,13.88h-1.49c-.51-5.81-1.08-10.47-1.67-13.84l-13.12-78.71-.13-.86H345.28l19.24,103.71a7.27,7.27,0,0,0,3,4.64,9.16,9.16,0,0,0,5.41,1.66h20.77a9,9,0,0,0,5.6-1.77,7.45,7.45,0,0,0,3-4.68L416,492.81c.41-2.31,1.06-6.25,1.95-11.84h1.38c.79,5.29,1.43,9.17,1.94,11.84l13.89,75.28c.85,4.2,3.74,6.44,8.39,6.44h20.95a9,9,0,0,0,5.35-1.66,8.25,8.25,0,0,0,3-4.65l19.25-103.71H469.17l-13.4,79.91Zm73.83-60.19h0c1-1.13,2.8-1.68,5.35-1.68h44.14l1.07-17-1-.08c-9.7-.83-26.07-1.26-48.66-1.26-7.48,0-13.51,1.92-17.9,5.74s-6.72,9.13-6.82,15.76v67.63c.1,6.63,2.39,11.93,6.82,15.76s10.41,5.74,17.9,5.74c22.62,0,39-.43,48.66-1.27l1-.07-1.07-16.84H534.95c-2.55,0-4.37-.56-5.36-1.69s-1.59-3.28-1.59-6.34V525.56h45.22V508.48H528V490.6c0-3.07.53-5.2,1.6-6.37Zm138,51.11h0c0,4.82.23,10.38.69,16.49h-.06c-1-2.28-2.33-5.33-4.05-9.1-1.91-4.17-3-6.6-3.34-7.36l-30-64.29a13.15,13.15,0,0,0-3.59-4.94,9.33,9.33,0,0,0-5.69-1.63H606.06c-5.62,0-8.58,2.85-8.58,8.22V574.52h21.75v-73a126.92,126.92,0,0,0-.7-14.54,120.12,120.12,0,0,0,6.23,14.82l31,66.13c1.87,4.36,5,6.57,9.28,6.57h15.82c5.49,0,8.41-2.83,8.41-8.23V464.51H667.63v70.82Zm114.24,0h0c0,4.82.25,10.38.72,16.49h-.07c-1-2.28-2.36-5.33-4.08-9.1-1.9-4.17-3-6.6-3.34-7.36l-30-64.29a12.84,12.84,0,0,0-3.58-4.94,9.33,9.33,0,0,0-5.69-1.63H720.3c-5.62,0-8.57,2.85-8.57,8.22V574.52H733.5v-73a127.21,127.21,0,0,0-.73-14.54A119.42,119.42,0,0,0,739,501.82L770,568c1.87,4.36,5,6.57,9.27,6.57h15.83c5.48,0,8.4-2.83,8.4-8.23V464.51h-21.6v70.82ZM883.5,470.44h0c-1.09-3.88-3.92-5.93-8.21-5.93H855.79c-4.28,0-7.13,2-8.18,5.9L814.08,574.52h22.68l9.13-30.5h39.32l9.09,30.5H917L883.5,470.44Zm-32.22,55.41h0l10.64-35.94,2.35-8.45H867c.24,1,.83,3.32,2.22,8.47l10.63,35.92Z"/></g></g></svg>