<svg xmlns="http://www.w3.org/2000/svg" xmlns:xlink="http://www.w3.org/1999/xlink" width="220px" height="26px">
<path fill-rule="evenodd"  fill="rgb(255, 255, 255)" d="M106.488,16.617 C106.488,17.649 107.123,18.763 108.155,18.772 C113.034,18.772 118.118,18.772 123.000,18.772 L123.000,23.999 C118.128,23.999 113.026,23.999 108.155,23.999 C104.403,23.749 101.143,20.228 101.052,16.447 L101.052,16.314 L101.059,16.314 L101.052,16.312 L101.052,8.237 C101.147,4.331 104.233,1.070 108.155,1.000 C108.200,1.000 108.332,1.115 108.375,1.115 C113.213,1.115 118.163,1.000 123.000,1.000 C123.000,2.691 123.000,4.535 123.000,6.227 C118.164,6.227 113.216,6.188 108.381,6.188 L108.370,6.188 C107.332,6.188 106.488,7.027 106.488,8.065 L106.488,8.368 L106.489,8.368 L106.488,9.800 C111.443,9.800 116.398,9.800 121.352,9.800 L121.352,10.237 L121.352,14.371 L107.177,14.371 L106.953,14.371 L106.720,14.371 L106.488,14.371 L106.488,15.432 L106.488,16.312 L106.490,16.312 L106.482,16.314 L106.488,16.314 L106.488,16.617 ZM108.155,23.999 C108.322,24.013 107.987,24.002 108.155,23.999 ZM81.998,18.137 C81.953,18.175 81.923,18.233 81.923,18.296 C81.923,18.407 82.595,18.772 82.707,18.772 L91.189,18.772 C93.255,18.772 95.633,18.772 97.551,18.772 C97.551,20.463 97.551,22.309 97.551,23.999 C91.411,23.999 85.666,23.999 79.526,23.999 C77.158,23.992 75.284,21.658 75.284,19.818 C75.284,18.336 76.257,16.409 77.405,15.636 L90.411,6.543 C90.457,6.508 90.489,6.451 90.489,6.387 C90.489,6.276 90.400,6.188 90.289,6.188 C85.284,6.188 80.292,6.227 75.284,6.227 C75.284,4.535 75.284,2.690 75.284,1.000 C81.302,1.000 87.293,1.000 93.310,1.000 C95.682,1.005 97.611,3.038 97.611,5.403 C97.611,6.887 96.856,8.195 95.707,8.965 L81.998,18.137 ZM65.741,1.000 L71.043,1.000 L71.043,23.999 L65.741,23.999 L65.741,1.000 ZM59.537,7.446 L59.533,7.451 L57.535,13.060 L55.151,19.721 C54.588,21.296 53.812,22.723 52.473,23.461 C51.787,23.841 50.960,24.016 50.148,23.995 C49.395,24.016 48.639,23.865 47.992,23.550 C46.628,22.889 45.782,21.543 45.227,19.992 C44.248,17.259 43.272,13.690 42.294,10.840 C41.316,13.690 40.340,17.259 39.361,19.992 C38.808,21.543 37.962,22.889 36.598,23.550 C35.951,23.865 35.196,24.016 34.441,23.995 C33.628,24.016 32.804,23.841 32.117,23.461 C30.774,22.723 30.000,21.296 29.439,19.721 L27.056,13.060 L25.054,7.447 L25.054,7.446 C24.795,6.712 24.099,6.188 23.277,6.188 L23.267,6.188 L23.236,6.188 C20.960,6.188 16.538,6.188 14.261,6.188 C15.416,6.803 15.905,9.183 15.905,10.408 C15.905,15.071 15.905,19.337 15.905,23.999 L10.603,23.999 C10.603,19.399 10.603,15.009 10.603,10.408 C10.603,8.276 8.616,6.188 6.479,6.188 L-0.000,6.188 L-0.000,1.000 L22.267,1.000 C22.570,1.000 23.025,1.000 23.327,1.000 C26.470,1.000 29.215,3.095 30.251,5.870 L30.263,5.896 C31.654,9.788 33.036,13.674 34.427,17.566 C34.459,17.633 34.526,17.677 34.603,17.677 C34.686,17.677 34.755,17.629 34.784,17.557 L39.302,3.161 L39.303,3.161 C40.201,0.269 44.389,0.269 45.287,3.161 L45.291,3.161 L49.805,17.557 C49.835,17.629 49.905,17.677 49.984,17.677 C50.063,17.677 50.130,17.633 50.163,17.566 C51.557,13.662 52.931,9.800 54.326,5.896 L54.328,5.896 C55.355,3.107 58.037,1.115 61.190,1.114 L61.246,1.114 L61.418,1.114 L61.418,6.188 L61.246,6.188 C60.454,6.214 59.787,6.733 59.537,7.446 Z"/>
<text kerning="auto" font-family="Exo2" fill="rgb(255, 255, 255)" transform="matrix( 3.92212958912848, 0, 0, 3.92212958912848,142.961369225065, 8.94647906963571)" font-weight="bold" font-size="3.06px"> <tspan>&#51;D&#45;&#1059;&#1057;&#1051;&#1059;&#1043;&#1048;</tspan><tspan x="0" dy="1.2em">&#1044;&#1051;&#1071;&#32;&#1041;&#1048;&#1047;&#1053;&#1045;&#1057;&#1040;</tspan></text>
</svg>