<svg xmlns="http://www.w3.org/2000/svg" xmlns:xlink="http://www.w3.org/1999/xlink" viewBox="0 0 307.93 60.78"><defs><style>.cls-1{fill:#5e492c;}.cls-2{fill:#443f32;}.cls-3{fill:#37362b;}.cls-4{fill:#f0e483;}.cls-5{fill:#77663d;}.cls-6{fill:#282522;}.cls-7{fill:#837041;}.cls-8{fill:#d0bd7b;}.cls-9{fill:#bea55e;}.cls-10{fill:url(#Безымянный_градиент_7);}.cls-11{fill:url(#Безымянный_градиент_7-2);}.cls-12{fill:url(#Безымянный_градиент_7-3);}.cls-13{fill:url(#Безымянный_градиент_7-4);}.cls-14{fill:url(#Безымянный_градиент_7-5);}.cls-15{fill:url(#Безымянный_градиент_7-6);}.cls-16{fill:url(#Безымянный_градиент_7-7);}</style><linearGradient id="Безымянный_градиент_7" x1="91.89" y1="-0.22" x2="281.39" y2="66.28" gradientUnits="userSpaceOnUse"><stop offset="0" stop-color="#e4d289"/><stop offset="1" stop-color="#bea55e"/></linearGradient><linearGradient id="Безымянный_градиент_7-2" x1="103.93" y1="-34.53" x2="293.43" y2="31.97" xlink:href="#Безымянный_градиент_7"/><linearGradient id="Безымянный_градиент_7-3" x1="100.46" y1="-24.62" x2="289.96" y2="41.88" xlink:href="#Безымянный_градиент_7"/><linearGradient id="Безымянный_градиент_7-4" x1="96.06" y1="-12.08" x2="285.56" y2="54.42" xlink:href="#Безымянный_градиент_7"/><linearGradient id="Безымянный_градиент_7-5" x1="85.14" y1="19.03" x2="274.64" y2="85.53" xlink:href="#Безымянный_градиент_7"/><linearGradient id="Безымянный_градиент_7-6" x1="80.42" y1="32.47" x2="269.92" y2="98.97" xlink:href="#Безымянный_градиент_7"/><linearGradient id="Безымянный_градиент_7-7" x1="87.06" y1="13.56" x2="276.56" y2="80.06" xlink:href="#Безымянный_градиент_7"/></defs><title>logo</title><g id="Слой_2" data-name="Слой 2"><g id="Слой_1-2" data-name="Слой 1"><polygon class="cls-1" points="0 0 35.09 60.78 70.18 0 0 0"/><polygon class="cls-1" points="0 0 35.09 60.78 56.48 23.73 45.19 0 0 0"/><polygon class="cls-2" points="35.09 58.46 68.22 1.07 1.96 1.07 35.09 58.46"/><polyline class="cls-3" points="35.09 53.96 38.51 34.97 29.6 31.6"/><polygon class="cls-4" points="5.85 3.32 68.22 1.07 0 0 5.85 3.32"/><polygon class="cls-5" points="64.33 3.32 8.69 7.12 8.16 7.32 5.85 3.32 68.22 1.07 64.33 3.32"/><polygon class="cls-5" points="64.33 3.32 26.61 5.9 27.59 2.54 68.22 1.07 64.33 3.32"/><polygon class="cls-6" points="27.98 24.98 41.52 15.85 42.94 13.47 45.84 21.24 42.68 26.73 40.71 26.63 39.19 30.03 37.35 29.78 32.42 31.44 31.75 28.18 28.95 29.22 27.98 24.98"/><polygon class="cls-7" points="35.09 58.45 5.85 3.32 1.96 1.07 35.09 58.45"/><polygon class="cls-8" points="5.85 3.32 35.09 58.45 35.09 53.96 5.85 3.32"/><polygon class="cls-5" points="35.09 53.96 35.09 58.45 68.22 1.07 35.09 53.96"/><polygon class="cls-9" points="35.09 53.96 64.33 3.32 68.22 1.07 35.09 53.96"/><polygon class="cls-9" points="68.22 1.07 64.33 3.32 52.33 24.1 50.54 29.29 68.22 1.07"/><polygon class="cls-8" points="24.34 38.18 35.09 58.46 35.09 53.96 27.13 40.16 24.34 38.18"/><polygon class="cls-4" points="0 0 5.85 3.32 41.2 2.04 40.41 0.63 0 0"/><polygon class="cls-6" points="35.09 53.96 64.33 3.32 53.74 4.11 35.09 53.96"/><polygon class="cls-6" points="8.69 7.12 13.47 5.37 14.76 6.38 21.01 4.92 23.7 6.1 45.19 4.63 46.34 7.79 41.52 15.85 27.98 24.98 35.09 53.96 13.28 16.18 18.85 13.47 22.58 14.07 28.45 11.44 22.21 10.06 14.73 10.83 8.69 7.12"/><polygon class="cls-6" points="16.48 17.55 5.85 3.32 14.73 18.7 16.48 17.55"/><polygon class="cls-6" points="64.33 3.32 45.19 4.63 52.68 7.32 64.33 3.32"/><path class="cls-9" d="M39.57,23.73h0l-3.26,3.16-3.5,1-.38,3.56,4.93-1.66L37.27,29l1.93,1h0l1.51-3.41L39.91,26Zm3.37-10.26,1.7,7.08L41.2,24l1.48,2.76,3.16-5.49Z"/><polygon class="cls-9" points="8.69 7.12 9.33 6.89 14.83 9.22 21.91 8.37 37.2 9.68 28.45 11.44 22.21 10.06 14.73 10.83 8.69 7.12"/><polygon class="cls-4" points="45.19 4.63 45.56 7.65 39.57 14.46 21.73 24.3 27.98 24.98 41.52 15.85 46.34 7.79 45.19 4.63"/><polygon class="cls-9" points="21.73 24.3 27.98 24.98 33.45 47.25 21.73 24.3"/><polygon class="cls-7" points="21.73 24.3 27.98 24.98 29.6 31.6 27.18 34.97 21.73 24.3"/><polygon class="cls-4" points="14.83 9.22 14.73 10.83 22.21 10.06 21.91 8.37 14.83 9.22"/><polygon class="cls-9" points="39.57 14.46 41.52 15.85 46.34 7.79 45.56 7.65 39.57 14.46"/><polygon class="cls-4" points="36.31 26.89 39.57 23.73 39.91 25.96 40.71 26.63 39.19 30.03 37.27 29.01 36.31 26.89"/><polygon class="cls-9" points="41.2 14.07 39.57 14.46 21.74 24.3 40.71 15.27 41.2 14.07"/><polygon class="cls-9" points="21.91 8.37 22.21 10.06 37.21 9.68 21.91 8.37"/><path class="cls-10" d="M200.58,46.07l-16.86-33.9-16.5,33.9h6.16L177.24,38h13l4,8.08ZM183.71,24.87l3.83,7.66h-7.61Z"/><path class="cls-11" d="M283.42,40.72V33.33h6.22a4.43,4.43,0,0,1,3.18.92,3.74,3.74,0,0,1,1,2.81A3.66,3.66,0,0,1,292.66,40a4.67,4.67,0,0,1-3,.76Zm0-12.84V17.46h-5.67v28.6h11.67c2.43,0,5.22-.35,7.39-2.43a9.24,9.24,0,0,0,2.64-6.91A8.4,8.4,0,0,0,297.41,31c-2.29-2.67-5.62-3.13-10-3.13Zm18.79,18.19h5.72V17.46h-5.72Z"/><polygon class="cls-12" points="258.46 22.91 269.47 22.91 269.47 17.46 241.78 17.46 241.78 22.91 252.79 22.91 252.79 46.07 258.46 46.07 258.46 22.91"/><polygon class="cls-13" points="227.5 46.07 233.22 46.07 233.22 17.46 227.5 17.46 227.5 27.82 214.49 27.82 214.49 17.46 208.77 17.46 208.77 46.07 214.49 46.07 214.49 33.22 227.5 33.22 227.5 46.07"/><polygon class="cls-14" points="118.77 22.92 129.78 22.92 129.78 17.47 102.1 17.47 102.1 22.92 113.11 22.92 113.11 46.07 118.77 46.07 118.77 22.92"/><path class="cls-15" d="M85.41,25.88l3.83,7.66H81.63Zm10,20.18h6.26L87.57,17.47H83.31l-14,28.6h6.26L78.94,39h13Z"/><polygon class="cls-16" points="154.22 46.07 160.43 46.07 147.48 17.46 143.22 17.46 130.37 46.07 136.58 46.07 145.32 25.67 154.22 46.07"/></g></g></svg>