<svg xmlns="http://www.w3.org/2000/svg" viewBox="0 0 559.65 65.74"><defs><style>.cls-1{fill:#ff881a;}.cls-2{fill:#fff;}</style></defs><title>Ресурс 2</title><g id="Слой_2" data-name="Слой 2"><g id="burns_Изображение" data-name="burns Изображение"><path class="cls-1" d="M0,5.79a1.07,1.07,0,0,1,.3.05,68.12,68.12,0,0,1,8.56,4.85,19.33,19.33,0,0,1,1.85,1.53,4.61,4.61,0,0,1,.57.78l-.08.08L5.45,9.46l-.08.11.35.28C7.37,11.3,9,12.73,10.65,14.21A12.13,12.13,0,0,1,12,15.81a.92.92,0,0,1-.06,1.28c-.22.26-.44.53-.74.9a3.84,3.84,0,0,0,.66-.22c.94-.55,1.89-1.07,2.8-1.67A6.82,6.82,0,0,0,15.77,15c.24-.25.4-.57.64-.82a.76.76,0,0,1,1.23,0,13,13,0,0,1,.87,1.12l.46-.63.25.23a9.8,9.8,0,0,0-.23,1.4c0,3.25-.06,6.51-.08,9.76a1.1,1.1,0,0,0,0,.16c.11,0,.23,0,.34,0h11.9A8.65,8.65,0,0,0,35,25.49a5.53,5.53,0,0,0,3.21-5A8.36,8.36,0,0,0,38,17.88a5,5,0,0,0-3.59-3.53,14.1,14.1,0,0,0-2.94-.48,5.07,5.07,0,0,0-1.68.23,2.45,2.45,0,0,0-.76.55,2,2,0,0,1-2.32.2,11.15,11.15,0,0,0-2-.85,6.85,6.85,0,0,1-1.89-1.11c-.63-.45-1.2-1-1.79-1.46a1.87,1.87,0,0,1-.36-.34.37.37,0,0,1,0-.33A.43.43,0,0,1,21,10.6a1.22,1.22,0,0,1,.5.19,9.44,9.44,0,0,1,1.42,1c.93.87,2.05.73,3.16.72.08,0,.18-.1.22-.18a1.68,1.68,0,0,1,1.58-.88c1.27,0,2.57-.24,3.77.43.12.07.45-.13.61-.28a4.11,4.11,0,0,0,.5-.72c-.17-.34-.39-.74-.57-1.15A1.32,1.32,0,0,1,32,9c.12-.48-.14-.75-.39-1.08-1-1.29-2-2.59-3-3.91a9.46,9.46,0,0,1-.77-1.38.56.56,0,0,1,.24-.78.6.6,0,0,1,.82.14,4.53,4.53,0,0,1,.85,1.11,15.66,15.66,0,0,0,2.56,3.67c1.61,2,3.28,3.89,4.91,5.84.55.66,1,1.36,1.6,2a1.52,1.52,0,0,0,.59.39c.69.28,1.39.51,2.07.8a3.8,3.8,0,0,1,2.27,2.56,3.38,3.38,0,0,0,1.78,2.07,12.45,12.45,0,0,0,1.68-2.85A17.38,17.38,0,0,0,48,15.17,12.66,12.66,0,0,0,48.05,13c0-.12-.12-.23-.2-.35-.61-1-1.22-1.91-1.82-2.88a2.22,2.22,0,0,1-.41-1.54,4.67,4.67,0,0,1,.85.34,13.37,13.37,0,0,1,3,3A9.9,9.9,0,0,0,51,12.77l1.81,1.5.16.16c.23.2.48.29.73,0a.48.48,0,0,0-.05-.73c-.58-.6-1.17-1.18-1.76-1.77-.25-.24-.51-.47-.73-.68.19-.61.65-.61,1.15-.64,2.45-.12,4.9-.27,7.35-.4h.55c.06.9.14,1.8.16,2.7.17,6.08.31,12.17.48,18.25.11,4,.14,7.91.41,11.85a53,53,0,0,0,1.08,6.11c.11.61.27,1.21.42,1.87l.65-.11c-.15-.59-.3-1.14-.42-1.7a1.23,1.23,0,0,1,0-.4,1.32,1.32,0,0,1,.34.22c.79,1,1.54,2,2.36,2.94a9.42,9.42,0,0,0,5.82,3.43,12.43,12.43,0,0,0,7.94-1.21,8.41,8.41,0,0,0,4.51-6.92,24.25,24.25,0,0,0,0-2.45c0-.24,0-.47,0-.75.62.56,1.08,1.28,2.1,1.34-.19-.51-.32-.93-.48-1.32A27.81,27.81,0,0,0,83,39a6.28,6.28,0,0,0-.85-.87.22.22,0,0,0-.21,0c-.35.27-.66,0-1,0s-.69-.28-.65-.73c0,0-.07-.06-.09-.06-1.37-.09-1.65-.63-1-1.83a2,2,0,0,0,.24-.87,1.19,1.19,0,0,1,1.22-1.33.66.66,0,0,0,.37-.21c.62-.66,1.24-1.33,1.83-2a1,1,0,0,0,.22-.55q.28-9.51.54-19a9.27,9.27,0,0,1,.12-1.31A1.23,1.23,0,0,1,84.89,9a4.86,4.86,0,0,1,.72,0l7.9.08h.36l-.16.45a3.11,3.11,0,0,0,.73.2.61.61,0,0,1,.67.68c0,1.28.09,2.57.12,3.85a15.18,15.18,0,0,1-.1,2.32,2.65,2.65,0,0,1-.56-.46c-.55-.8-1.06-1.62-1.59-2.43a3.68,3.68,0,0,0-.43-.53.76.76,0,0,0-1-.18.75.75,0,0,0-.44.86A5.18,5.18,0,0,0,91.52,15c.38.81.8,1.59,1.2,2.39.09.17.16.35.23.51L90.28,19.5a3.09,3.09,0,0,0-.31-.4.37.37,0,0,0-.31-.1.35.35,0,0,0-.16.29,2.88,2.88,0,0,0,.14.66c.14.43.31.85.43,1.29a1.08,1.08,0,0,1-.92,1.46.55.55,0,0,0-.51.4,26.17,26.17,0,0,0-1.42,3.52,14.54,14.54,0,0,0,.7,9.08,24.6,24.6,0,0,0,1.9,3.24c.39.65.78,1.3,1.22,1.91a3.76,3.76,0,0,0,2.69,1.59,3.33,3.33,0,0,1,1.2.58,13.46,13.46,0,0,1,1.07.82c0-.23,0-.37,0-.51q0-3.86,0-7.72a10.64,10.64,0,0,1,0-1.09,2.59,2.59,0,0,1,1.65-2.25,2,2,0,0,0,.92-.8c1.46-2.9,2.79-5.86,3-9.16.07-1.24-.15-2.5-.2-3.75a3.53,3.53,0,0,0-.75-2.15c-.48-.62-.16-1.32.09-1.95.32-.79.71-1.56,1.08-2.33.1-.22.18-.39,0-.62-.6-.73-1.17-1.49-1.78-2.21-.82-1-1.66-1.92-2.49-2.87-1-1.14-2-2.27-3-3.44a9,9,0,0,1-1-1.51.58.58,0,0,1,.3-.8.58.58,0,0,1,.81.19,9.87,9.87,0,0,0,2.2,2q.79.64,1.56,1.31c.29.25.54.45,1,.19,1-.63,1.72,0,2.43.58s1.53,1.32,2.3,2c1.21-.91,2.66-.74,4.07-.78.66,0,1.33,0,2,0s1.57.12,2.35.15c1.36.06,2.72.12,4.08.13,3.35,0,6.69,0,10,.08A17,17,0,0,1,133,7.69a12.94,12.94,0,0,1,8.24,10.67,36.05,36.05,0,0,1,.07,7.53A6.52,6.52,0,0,1,139.4,30c-1.18,1.21-2.49,2.29-3.76,3.41-.52.46-1.09.86-1.68,1.32l1,.85c.6.49,1.17,1,1.8,1.45a10.71,10.71,0,0,1,4.3,6.92c.31,1.54.5,3.11.75,4.66a2.22,2.22,0,0,0,.16.61q.37-3.22.74-6.43.44-3.78.89-7.56.42-3.62.84-7.25l2-16.81q.35-3,.7-6A1.27,1.27,0,0,1,148.61,4c3.07.39,6.14.78,9.21,1.19a3.08,3.08,0,0,1,.74.29A2.13,2.13,0,0,1,159,5c.42-.31,1,0,1.19.6s.42,1.42.63,2.13l4.11,14.45s0,.09,0,.13c.08.32.14.65-.26.81s-.46,0-.67-.59a2,2,0,0,1-2.21,1.47l1,.93c.26.23.44.47.12.8-.06.06,0,.19,0,.29a.62.62,0,0,1-.93.59,9.36,9.36,0,0,1-1-.65c-.69-.48-1.36-1-2.08-1.44C158,23.9,157,23.38,156,22.8c-.24.95-.48,1.82-.69,2.69-.06.27.62,1.14.92,1.19a.63.63,0,0,1,.58.48c0,.13.18.22.26.33-.26,0-.42.41-.31.76,0,.11.11.22.15.33.11.29.08.59-.21.7a.94.94,0,0,1-.69-.07c-.2-.1-.32-.34-.43-.46-.33,4.69-.93,9.41-1.39,14.14-.51,5.09-1.06,10.18-1.59,15.26-.05.51-.13,1-.21,1.57l-9.18-1.19.34,2.57H143l-9.9-.06a1.5,1.5,0,0,1-1.57-1.32q-.93-4.81-1.84-9.63c-.49-2.6-1-5.2-1.42-7.81A5.68,5.68,0,0,0,124.83,38a4,4,0,0,0-1.63-.33c-3.88-.05-7.75-.07-11.63-.1-.57,0-1.15,0-1.72.05a1.62,1.62,0,0,0-1.12,1.26c0,.83-.06,1.66-.06,2.5q0,8.22,0,16.44c0,1.06,0,2.12.06,3.18a2.38,2.38,0,0,0,.24.65,1.23,1.23,0,0,1-.26,0l-9.95-.06A1.58,1.58,0,0,1,97.05,60q-.16-2.7-.28-5.4c-.13-2.74-.25-5.47-.38-8.21a.47.47,0,0,0-.11-.31c0,.48-.06,1-.13,1.45A19.47,19.47,0,0,1,83.61,63.63a29.31,29.31,0,0,1-14,2,29,29,0,0,1-8.27-1.78A17.63,17.63,0,0,1,51.51,54c-.32-.73-.62-1.48-.94-2.21a4.42,4.42,0,0,0-.41-.6c-.07.11-.11.19-.16.26a18.11,18.11,0,0,1-12,6.92,31,31,0,0,1-4.43.34c-7.74.05-15.48.06-23.21.08h-2c-1.67,0-2.32-.64-2.29-2.31.1-6.39.22-12.78.32-19.17.06-4.19.09-8.39.15-12.58,0-.64-.43-1-.72-1.53C5.2,22.14,4.47,21.1,3.8,20a2.3,2.3,0,0,1,.26-3,17.38,17.38,0,0,0,2.48-3.65.52.52,0,0,0-.09-.49c-.34-.27-.73-.49-1.09-.73a10.4,10.4,0,0,1-1.07-.75A1.27,1.27,0,0,1,3.85,9.9a1.56,1.56,0,0,0-.67-1.54A14,14,0,0,1,0,6.15ZM18.83,49.52l.55,0c2,0,4.08.13,6.12.1q4.31-.06,8.62-.28a6.18,6.18,0,0,0,6.08-5c.08-.31.14-.62.19-.93a6.93,6.93,0,0,0-5.53-8.31,21,21,0,0,0-4.05-.42c-3.54-.07-7.08-.06-10.62-.08-.3,0-.6.1-.9.11s-.48.2-.48.57c0,4.57,0,9.14,0,13.71Zm89.73-33.15V31.19H109c2.57,0,5.15.1,7.72.08s4.91-.06,7.35-.24a5.64,5.64,0,0,0,5.41-4.89,12.67,12.67,0,0,0-.15-5.4,5.27,5.27,0,0,0-4.52-4.32,20.71,20.71,0,0,0-3.74-.33c-3.44,0-6.87.19-10.31.29C110,16.39,109.31,16.37,108.55,16.37ZM48.14,24.85l-5.5,4.63a3.52,3.52,0,0,1,1.8,3,7.48,7.48,0,0,1,0,1.58,2.34,2.34,0,0,0,1.15,2.25c.44.35.9.65,1.38,1,.45-.19.66-.09.82.43a2,2,0,0,1,.09.35c.12,1.11.28,2.22.33,3.34,0,.77.64,1,1.1,1.5Z"/><path class="cls-1" d="M226.5,45.58l-.51.63-1.11-1.07c-.73-.7-1.47-1.4-2.19-2.11-.26-.25-.46-.57-.72-.81a1.7,1.7,0,0,0-.52-.22c0,.21-.17.44-.12.61a11.78,11.78,0,0,0,.55,1.24,6.86,6.86,0,0,1-2,2.53,1.65,1.65,0,0,1,.58,1.53c0,1,.07,2,.18,3,.07.6.28.71.78.36,1.14-.77,2.23-1.6,3.34-2.41a1.4,1.4,0,0,1,.46-.28c-.13.56-.24,1.14-.4,1.69,0,.13-.25.23-.4.31-1.38.72-2.77,1.42-4.14,2.16a5.77,5.77,0,0,0-1.09.81.9.9,0,0,0,.21,1.58,6.48,6.48,0,0,0,.75.29,8.83,8.83,0,0,0-.39,1c-.11.42.09.59.49.42s.91-.47,1.41-.73c-.09.11-.15.19-.22.27a17.56,17.56,0,0,1-8.78,4.75,38.89,38.89,0,0,1-11.87.85c-1.81-.11-3.61-.37-5.42-.57l-.35,0-.06.13a2.37,2.37,0,0,0,.62.32c.5.09,1,.09,1.53.19a4.44,4.44,0,0,1,1.28.4,1.16,1.16,0,0,1,.53.73c.09.56.5.85.83,1.21.08.09.28.09.42.11,1.08.16,2.16.3,3.23.49a.89.89,0,0,1,.83.58.92.92,0,0,1-.19,0,61.87,61.87,0,0,1-10.74-1,14.39,14.39,0,0,1-2-.69c-.13,0-.22-.18-.42-.34l6.92.92,0-.12-.42-.11a44,44,0,0,1-6.85-2.1,10.33,10.33,0,0,1-1.3-.65c-.69-.4-.78-.65-.59-1.42.09-.35.19-.7.31-1l2.61-7.35c.38-1.06.83-1.4,1.94-1.25a15,15,0,0,1,2.11.5,25.06,25.06,0,0,0,9.28,1,9.79,9.79,0,0,0,4.46-1.39,4.58,4.58,0,0,0,2.29-3.61,3.17,3.17,0,0,0-.79-2.39,8.89,8.89,0,0,0-2.63-2,38.15,38.15,0,0,0-5.89-2.35,38,38,0,0,1-7.63-3.45,13.19,13.19,0,0,1-5.2-5.32c-.41-.85-.71-1.76-1.05-2.63l-.65,3.75Q187,36.78,186.29,41c-.47,2.74-.94,5.48-1.41,8.21-.41,2.34-.82,4.67-1.23,7q-.56,3.21-1.11,6.43a2.85,2.85,0,0,1-.6,1.57,1.83,1.83,0,0,1-1.84.43c-3.27-.41-6.53-.83-9.8-1.22A1.94,1.94,0,0,1,168.47,62c-1.31-3.83-2.69-7.63-4.05-11.44-.52-1.45-1.05-2.89-1.57-4.34a1.45,1.45,0,0,1-.1-.66c.23-1.54.48-3.07.72-4.6a5.59,5.59,0,0,0-.26-2.95c0-.1-.08-.2-.11-.3-.4-1.25.05-1.89,1.37-1.94l.32,0a9.28,9.28,0,0,1-.81-.48,6.55,6.55,0,0,1-1.21-1,1.42,1.42,0,0,1-.21-1,1.69,1.69,0,0,0-.8-1.78c-.9-.56-1.77-1.16-2.63-1.77-.22-.16-.48-.38-.36-.76a1,1,0,0,1,.18,0,68.32,68.32,0,0,1,8.79,5,15.38,15.38,0,0,1,1.61,1.33,6.2,6.2,0,0,1,.67.87l-.09.08-5.84-3.67-.07.09.28.24,4.61,4a1.59,1.59,0,0,0,.53.32,2.91,2.91,0,0,1,2,1.81c.26.71.41,1.45.64,2.17s.51,1.32.72,2a8.67,8.67,0,0,1,.2,1.2c.38,0,.57-.12.64-.54.74-4.67,1.49-9.34,2.24-14q.86-5.37,1.7-10.74.73-4.63,1.45-9.26c0-.13,0-.27,0-.41a1.26,1.26,0,0,1,1.57-1.24c1.72.25,3.44.46,5.17.68,1.51.19,3,.36,4.54.58.87.13,1.24.85,1.11,1.85-.23,1.76-.6,3.51-.91,5.27,0,0,0,.05,0,.09s.09,0,.11-.07a15.92,15.92,0,0,1,8.68-5.7,34.63,34.63,0,0,1,10.56-1.23c1.24,0,2.48.09,3.72.14a.53.53,0,0,1,.26.08,31.37,31.37,0,0,0-7.08,1.46c.84-.11,1.67-.24,2.51-.33,2.3-.24,4.61-.47,6.91-.67a5.26,5.26,0,0,1,1.22.1c.34,0,.6.28.51.62,0,.18-.34.34-.55.41a2.31,2.31,0,0,1-.72,0,21.84,21.84,0,0,0-11.4,2.6c-.23.13-.44.3-.66.44l0,.11a4.32,4.32,0,0,0,.63-.1c1.21-.39,2.41-.79,3.63-1.17.42-.13.86-.21,1.39-.33a3.05,3.05,0,0,0,.25,2.39c.86-.4,1.67-.81,2.5-1.15a25.3,25.3,0,0,1,2.4-.82.83.83,0,0,1,.69.13c.1.1,0,.49-.09.66-.37.53-.79,1-1.2,1.53s-.88.75-.94,1.4c0,.07-.21.18-.32.17a4.62,4.62,0,0,1-.61-.16,3.6,3.6,0,0,0-.41,0,1.74,1.74,0,0,0,0,.56c0,.12.19.23.32.29a.67.67,0,0,1,.38.86c-.12.38-.43.44-.81.4a18.93,18.93,0,0,0-6.09.35,7.93,7.93,0,0,0-2.74,1.17,3.79,3.79,0,0,0-.41,6.15,9.3,9.3,0,0,0,3.34,1.78c3.08,1.07,6.18,2.11,9.24,3.25a16.36,16.36,0,0,1,5.68,3.34,12.34,12.34,0,0,1,3.6,6.23,16.58,16.58,0,0,0,.95,2.3c.17.43.31.87.47,1.31ZM193.49,62l1.31-.7-1-.18Z"/><path class="cls-1" d="M61.93,16.19c1.19.62,2.32,1.18,3.44,1.78a45.44,45.44,0,0,1,6.18,3.8,3.87,3.87,0,0,1,1.55,1.82c-1-.62-1.93-1.24-2.9-1.85s-2-1.22-3-1.82l-.06.09c.18.14.38.27.55.42,1.69,1.5,3.38,3,5,4.5a7.72,7.72,0,0,1,1.08,1.34c.39.57.41.83-.06,1.34-.72.79-1.51,1.53-2.29,2.26-.41.38-1.05.62-1.26,1.07a3.45,3.45,0,0,0,.07,1.64c.08.65.21,1.3.31,2a4.73,4.73,0,0,1,.06.63A.81.81,0,0,1,70,36a.82.82,0,0,1-.9-.77c0-.07,0-.15,0-.3-1,.26-1.51-.49-2-1.16s-1.18-1.41-1.78-2.1a2.32,2.32,0,0,1-.33-2.19,6.91,6.91,0,0,1,1.91-3.06c.71-.77,1.38-1.59,2.09-2.42-.16-.09-.26-.12-.27-.16-.16-.73-.82-.9-1.34-1.25a11.19,11.19,0,0,1-1.3-1,1.07,1.07,0,0,1-.28-1.13A1.57,1.57,0,0,0,65,18.82Q63.63,18,62.31,17A.75.75,0,0,1,61.93,16.19Z"/><path class="cls-1" d="M174.64,16.25c-.18.52-.33,1-.48,1.4A1.81,1.81,0,0,1,173,18.76c-.29.11-.38,0-.34-.33.12-.79,0-.91-.68-1.23-.43-.19-.86-.36-1.27-.59a2.13,2.13,0,0,1-.45-.51,2.24,2.24,0,0,1,.57-.31,4.18,4.18,0,0,1,2.71.09C174,16,174.34,16.14,174.64,16.25Z"/><path class="cls-1" d="M77.81,3.56c-.17.5-.33,1-.49,1.41a1.79,1.79,0,0,1-1.13,1.1c-.31.11-.37-.08-.32-.34.12-.75,0-.9-.64-1.22-.49-.23-1-.46-1.46-.71-.13-.07-.3-.29-.27-.37a.61.61,0,0,1,.39-.31,4.27,4.27,0,0,1,2.71,0C77,3.32,77.47,3.44,77.81,3.56Z"/><path class="cls-1" d="M13.07,6.61c-.18.51-.34.95-.49,1.39a1.81,1.81,0,0,1-1.11,1.12c-.3.12-.41,0-.34-.35.15-.68,0-.87-.58-1.17s-1-.47-1.51-.73c-.14-.07-.21-.27-.31-.41.14-.1.28-.26.43-.29a4.34,4.34,0,0,1,2.72,0C12.29,6.38,12.73,6.49,13.07,6.61Z"/><path class="cls-1" d="M72.25,0a4,4,0,0,1,.18.41c.09.3.25.37.55.26a.5.5,0,0,1,.43.06,4.17,4.17,0,0,0,1.81,1.09,1.1,1.1,0,0,1,.48.36,3.54,3.54,0,0,1-2.53-.32A1.86,1.86,0,0,1,72.25,0Z"/><path class="cls-1" d="M172.64,14.85c-1.84.56-3.55-.48-3.6-2.13.07.08.13.12.14.17.12.41.3.7.79.41.05,0,.21,0,.27.1a4.13,4.13,0,0,0,1.84,1.12A3.38,3.38,0,0,1,172.64,14.85Z"/><path class="cls-1" d="M11.06,5.21c-1.78.62-3.72-.56-3.57-2.13a1.79,1.79,0,0,1,.16.3c.1.36.28.51.66.31a.38.38,0,0,1,.35.07A4.17,4.17,0,0,0,10.5,4.88,3.39,3.39,0,0,1,11.06,5.21Z"/><path class="cls-1" d="M14.72,9.66c-.32-.08-.64-.16-1-.22-.09,0-.26,0-.28.08a.39.39,0,0,0,0,.32c.18.25.39.48.6.72a1.59,1.59,0,0,1-1.88-1.4c0-.43.16-.65.55-.5.68.26,1.33.59,2,.89Z"/><path class="cls-1" d="M193.49,62l.29-.88,1,.18Z"/><polygon class="cls-1" points="226.07 14.17 226.35 13.87 226.04 13.79 226.07 14.17"/><polygon class="cls-1" points="229.05 11.47 228.77 11.77 229.08 11.86 229.05 11.47"/><polygon class="cls-1" points="227.34 16.65 227.53 16.49 227.34 16.34 227.34 16.65"/><polygon class="cls-1" points="227.87 16.6 227.87 16.38 227.73 16.49 227.87 16.6"/><polygon class="cls-1" points="227.13 12.62 227.55 12.99 227.98 12.56 227.59 12.07 227.13 12.62"/><polygon class="cls-1" points="224.06 15.25 224.28 15.29 224.25 15.08 224.06 15.25"/><polygon class="cls-1" points="224.89 9.85 224.92 9.64 224.73 9.67 224.89 9.85"/><polygon class="cls-1" points="223.74 12.41 223.43 12.41 223.59 12.6 223.74 12.41"/><polygon class="cls-1" points="225.1 9.29 225.07 9.5 225.26 9.47 225.1 9.29"/><polygon class="cls-1" points="227.3 8.72 227.44 8.6 227.3 8.49 227.3 8.72"/><polygon class="cls-1" points="224.44 15.62 224.61 15.46 224.42 15.43 224.44 15.62"/><polygon class="cls-1" points="223.47 12.93 223.7 12.93 223.59 12.8 223.47 12.93"/><polygon class="cls-1" points="230.25 9.74 230.07 9.9 230.28 9.93 230.25 9.74"/><polygon class="cls-1" points="230.63 10.11 230.43 10.08 230.46 10.26 230.63 10.11"/><polygon class="cls-1" points="228.6 14.19 228.98 14.17 228.68 13.88 228.6 14.19"/><polygon class="cls-1" points="226.84 11.07 226.46 11.1 226.76 11.38 226.84 11.07"/><polygon class="cls-1" points="230.5 15.83 230.53 15.63 230.35 15.66 230.5 15.83"/><path class="cls-1" d="M227.49,7.27a5.45,5.45,0,1,0,5.45,5.45A5.45,5.45,0,0,0,227.49,7.27Zm2.77,2.31.1,0,.05.34.37.05,0,.11-.33.29.07.44-.12,0-.06-.37-.39.35-.08-.09.45-.41,0-.3L230,10l-.42.38-.08-.09Zm-1.62,1.5V11l.79,0,0,.11-.3.31,0,.58-.08.06-.46-.12-.18.19L228.4,12l.88-.92Zm-1.47-.59.28.2v-.56l.1,0,.48.41-.08.09-.37-.32v.51l.32.22-.07.1-.24-.17v.67h-.12v-.75l-.35-.25Zm-1.15.19.31.3.58,0L227,11l-.12.46.19.18-.09.09-.92-.88,0,.64h-.12l0-.79ZM224.6,9.56l.34,0,.05-.37.11,0,.3.34.45-.06,0,.12-.37.05.34.38-.09.08-.4-.44-.31,0L225,10l.38.42-.09.08-.73-.81Zm-1.26,3.5,0-.1.21-.26-.26-.31,0-.1h.55l.25-.31.1.08-.19.23h.41v.12h-.51l-.23.29.2.24h.57v.12Zm1.09,2.73-.1,0,0-.34-.38-.06,0-.11.36-.32,0-.43h.12l0,.34.35-.32.08.09-.42.38,0,.33.33,0,.42-.38.08.09Zm1-2.72.25-.33h-.53l0-.1.41-.47.09.08-.32.37h.49l.24-.32.1.08-.19.24h.68v.12h-.78l-.31.4Zm1,1.5v.12l-.79,0,0-.11.3-.31,0-.58.08-.06.46.12.18-.19.09.09-.88.92ZM228,16.73l-.1,0-.26-.21-.31.26-.1,0v-.55l-.31-.25.08-.1.23.19v-.41h.12v.51l.29.23.24-.2v-.57H228ZM228,15l-.33-.25v.53l-.1,0-.47-.41.08-.09.37.32v-.49l-.32-.24.08-.1.24.19v-.68h.12v.78l.4.31Zm.11-2.39-.47.47.45.4-.08.09-.45-.4-.4.4-.09-.09.4-.4-.46-.41v-.09l.54-.66h.1l.48.59Zm.07-3.4L228,9v.41h-.12V8.92l-.29-.23-.24.2v.57h-.12V8.36l.1,0,.26.21.31-.26.1,0v.55l.31.25Zm1.24,5.39-.31-.3-.58,0-.06-.08.12-.46-.19-.18.09-.09.92.88,0-.64h.12l0,.79Zm.17-1.61.32-.37h-.56L229,13l-.1-.08.26-.31h-.61v-.13h.71l.3-.36.1.08-.23.28H230l0,.1-.41.48ZM231,15.56l-.34.05-.05.37-.11,0-.3-.33-.46.07,0-.12.38-.06-.35-.39.09-.08.4.45.3,0,.05-.35-.38-.42.09-.08.73.81Zm.33-2.57-.25.31-.1-.08.19-.23h-.41v-.12h.51l.23-.29-.2-.24h-.57v-.12h1.09l0,.1-.21.26.26.31,0,.1Z"/><polygon class="cls-1" points="227.83 8.76 227.83 8.44 227.63 8.6 227.83 8.76"/><polygon class="cls-1" points="230.71 15.28 230.68 15.49 230.87 15.46 230.71 15.28"/><polygon class="cls-1" points="231.69 12.34 231.47 12.34 231.58 12.48 231.69 12.34"/><polygon class="cls-1" points="231.43 12.87 231.74 12.87 231.58 12.68 231.43 12.87"/><path class="cls-2" d="M286.55,18.73c3.56,4,5.89,10.07,5.89,17.4S290,49.7,286.55,53.6c-3,3.49-8.36,7.19-17.13,7.19s-14.11-3.7-17.13-7.19c-3.43-3.9-5.89-10-5.89-17.47s2.33-13.36,5.89-17.4c3.9-4.52,9.45-7.26,17.13-7.26S282.65,14.21,286.55,18.73ZM257.72,23c-2.47,3.15-4,8.22-4,13.15,0,4,1.1,9.38,4,13.15a15.26,15.26,0,0,0,23.43,0c2.95-3.77,4-9.11,4-13.15,0-4.93-1.58-10-4-13.15a15.26,15.26,0,0,0-23.43,0Z"/><path class="cls-2" d="M300.89,12.16h28.65v6h-21.8v14h21v6h-21V60.11h-6.85Z"/><path class="cls-2" d="M339.12,12.16h28.65v6H346v14h21v6H346V60.11h-6.85Z"/><path class="cls-2" d="M376.6,12.16h15c4.45,0,10.28.14,14.18,3,2.26,1.64,4.38,4.59,4.38,9.52a10.38,10.38,0,0,1-3.15,8,12,12,0,0,1-6.71,3.36v.14a7,7,0,0,1,2.6,1.64A17.73,17.73,0,0,1,404.91,41l9,19.11h-7.81l-7.33-16.65a7.73,7.73,0,0,0-3.15-3.9c-1-.55-2.47-.75-4.86-.75h-7.35v21.3H376.6Zm6.85,20.62h9.06c2.06,0,5.55-.21,8-2.33a6.61,6.61,0,0,0,2.33-5.14,6.22,6.22,0,0,0-3.15-5.82,14.47,14.47,0,0,0-6.44-1.3h-9.81Z"/><path class="cls-2" d="M457.4,18.73c3.56,4,5.89,10.07,5.89,17.4S460.83,49.7,457.4,53.6c-3,3.49-8.36,7.19-17.13,7.19s-14.11-3.7-17.13-7.19c-3.43-3.9-5.89-10-5.89-17.47s2.33-13.36,5.89-17.4c3.9-4.52,9.45-7.26,17.13-7.26S453.5,14.21,457.4,18.73ZM428.56,23c-2.47,3.15-4,8.22-4,13.15,0,4,1.1,9.38,4,13.15a15.26,15.26,0,0,0,23.43,0c2.95-3.77,4-9.11,4-13.15,0-4.93-1.57-10-4-13.15a15.26,15.26,0,0,0-23.43,0Z"/><path class="cls-2" d="M485.41,12.16h7.19l20.21,48h-7.47L500.48,48H477.05l-4.86,12.12H465Zm3.36,6.44-9.52,23.77h19Z"/><path class="cls-2" d="M520.06,12.16h14.11c5.14,0,12.54,1,18.56,6.71,3.56,3.36,6.92,8.77,6.92,17.4a26,26,0,0,1-4.18,14.59c-5.62,7.95-14.73,9.25-21.3,9.25H520.06Zm6.85,41.92h7.19c5.21,0,10.89-.82,14.86-5.89,1.1-1.37,3.43-4.93,3.43-11.37,0-6.85-2.47-11.37-5-13.9a17.56,17.56,0,0,0-12.47-4.73h-8Z"/></g></g></svg>